<?xml version="1.0" encoding="UTF-8"?>
<svg width="450px" height="40px" viewBox="0 0 450 40" version="1.1" xmlns="http://www.w3.org/2000/svg" xmlns:xlink="http://www.w3.org/1999/xlink">
    <!-- Generator: Sketch 48.2 (47327) - http://www.bohemiancoding.com/sketch -->
    <title>text-cover</title>
    <desc>Created with Sketch.</desc>
    <defs></defs>
    <g id="Page-2" stroke="none" stroke-width="1" fill="none" fill-rule="evenodd">
        <g id="text-cover" fill="#1B2733">
            <path d="M2.5625,8.33607955 L6.796875,8.33607955 L4.6875,2.25795455 L4.65625,2.25795455 L2.5625,8.33607955 Z M0,11.6798295 L4.03125,0.476704548 L5.328125,0.476704548 L9.359375,11.6798295 L8.015625,11.6798295 L7.1875,9.48451705 L2.15625,9.48451705 L1.34375,11.6798295 L0,11.6798295 Z M16.7890625,9.92982955 C17.2369814,10.4246237 17.9296828,10.672017 18.8671875,10.672017 C19.8046922,10.672017 20.486977,10.4845189 20.9140625,10.109517 C21.341148,9.73451517 21.5546875,9.27879056 21.5546875,8.74232955 C21.5546875,8.21107689 21.3619811,7.78920611 20.9765625,7.47670455 C20.5911439,7.16420299 19.7656313,6.80222744 18.5,6.39076705 C17.2343687,5.97930666 16.333336,5.53660275 15.796875,5.06264205 C15.260414,4.58868135 14.9921875,3.95587517 14.9921875,3.16420455 C14.9921875,2.37253392 15.3098927,1.6850408 15.9453125,1.10170455 C16.5807323,0.528785017 17.4296822,0.242329548 18.4921875,0.242329548 C19.5546928,0.242329548 20.4401006,0.502743611 21.1484375,1.02357955 C21.851566,1.54441549 22.2734368,2.31263697 22.4140625,3.32826705 L21.0703125,3.61732955 C20.9401035,2.93503447 20.6822936,2.4116022 20.296875,2.04701705 C19.906248,1.68243189 19.3359412,1.50014205 18.5859375,1.50014205 C17.8359338,1.49493369 17.2734394,1.65378627 16.8984375,1.97670455 C16.5234356,2.29962283 16.3359375,2.69024392 16.3359375,3.14857955 C16.3359375,3.60691517 16.5078108,3.96628658 16.8515625,4.22670455 C17.1953142,4.49233088 18.0286392,4.84128572 19.3515625,5.27357955 C20.6744858,5.70587338 21.5937474,6.16680627 22.109375,6.65639205 C22.6250026,7.14597783 22.8828125,7.83347095 22.8828125,8.71889205 C22.8828125,9.60431314 22.5338577,10.3595139 21.8359375,10.984517 C21.1380173,11.6095202 20.1849019,11.922017 18.9765625,11.922017 C16.3202992,11.9168087 14.8203142,10.5496349 14.4765625,7.82045455 L15.875,7.55482955 C16.0364591,8.64337666 16.3411436,9.43503541 16.7890625,9.92982955 Z M25.65625,6.78139205 L30.703125,6.78139205 C30.6822916,6.06784681 30.468752,5.45066549 30.0625,4.92982955 C29.656248,4.40899361 29.0364625,4.14857955 28.203125,4.14857955 C27.3697875,4.14857955 26.7395855,4.42461845 26.3125,4.97670455 C25.8854145,5.53920736 25.6666667,6.14076385 25.65625,6.78139205 Z M28.25,11.922017 C27.0989526,11.922017 26.1562537,11.513167 25.421875,10.6954545 C24.6874963,9.87774213 24.3177084,8.79181549 24.3125,7.43764205 C24.3125,6.07826025 24.6718714,4.99233361 25.390625,4.17982955 C26.1093786,3.36732549 27.0390568,2.96107955 28.1796875,2.96107955 C29.3151098,2.96107955 30.2343715,3.3621172 30.9375,4.16420455 C31.6406285,4.96629189 31.9921875,6.05742681 31.9921875,7.43764205 L31.9921875,7.82045455 L25.625,7.82045455 C25.6354167,8.63295861 25.861977,9.32305588 26.3046875,9.89076705 C26.747398,10.4584782 27.4010373,10.7423295 28.265625,10.7423295 C29.1302127,10.7423295 29.783852,10.4558741 30.2265625,9.88295455 C30.4244802,9.6329533 30.5989576,9.36212267 30.75,9.07045455 L31.8046875,9.75795455 C31.4869776,10.3777493 31.031253,10.8933692 30.4375,11.3048295 C29.843747,11.7162899 29.1145877,11.922017 28.25,11.922017 Z M40.1640625,10.734517 C39.4505173,11.5261877 38.539068,11.922017 37.4296875,11.922017 C36.320307,11.922017 35.4036495,11.5261877 34.6796875,10.734517 C33.9505172,9.94284642 33.5859375,8.84910736 33.5859375,7.45326705 C33.5859375,6.05742674 33.9609338,4.95847939 34.7109375,4.15639205 C35.4609412,3.35951306 36.3697863,2.96107955 37.4375,2.96107955 C38.510422,2.96107955 39.4114547,3.3621172 40.140625,4.16420455 C40.8697953,4.96629189 41.234375,6.0626351 41.234375,7.45326705 C41.234375,8.84910736 40.8776077,9.94284642 40.1640625,10.734517 Z M37.421875,10.734517 C38.1510453,10.7397254 38.7526018,10.4506658 39.2265625,9.86732955 C39.7005232,9.2839933 39.9375,8.47410556 39.9375,7.43764205 C39.9375,6.40117853 39.7031273,5.5912908 39.234375,5.00795455 C38.7656227,4.4246183 38.1640662,4.13555869 37.4296875,4.14076705 C36.6901005,4.14076705 36.0807316,4.42722252 35.6015625,5.00014205 C35.1223934,5.57826994 34.8828125,6.39336595 34.8828125,7.44545455 C34.8828125,8.49754314 35.1223934,9.31003502 35.6015625,9.88295455 C36.0859399,10.4506657 36.6927047,10.734517 37.421875,10.734517 Z M43.3125,8.71889205 L43.3125,3.20326705 L44.625,3.20326705 L44.625,8.53139205 C44.625,9.32306267 44.7760402,9.88295291 45.078125,10.2110795 C45.3802098,10.5392062 45.8697883,10.703267 46.546875,10.703267 C47.2239617,10.703267 47.729165,10.5053524 48.0625,10.109517 C48.4062517,9.71368174 48.578125,9.16420806 48.578125,8.46107955 L48.578125,3.20326705 L49.875,3.20326705 L49.875,11.6798295 L48.59375,11.6798295 L48.59375,10.8673295 L48.5625,10.8673295 C48.5104164,10.9402466 48.4322922,11.0339956 48.328125,11.1485795 C48.2239578,11.2631635 47.9739603,11.422016 47.578125,11.625142 C47.187498,11.8230597 46.7630231,11.922017 46.3046875,11.922017 C45.3723912,11.9168087 44.6406277,11.6485822 44.109375,11.1173295 C43.5781223,10.5860769 43.3125,9.78660572 43.3125,8.71889205 Z M52.5859375,11.6798295 L52.5859375,0.000142048193 L53.9140625,0.000142048193 L53.9140625,11.6798295 L52.5859375,11.6798295 Z M56.953125,6.79701705 L56.953125,5.63295455 L69.578125,5.63295455 L69.578125,6.79701705 L56.953125,6.79701705 Z M72.609375,11.6798295 L72.609375,0.000142048193 L73.921875,0.000142048193 L73.921875,4.01576705 L73.953125,4.01576705 C74.546878,3.31263853 75.3541616,2.96107955 76.375,2.96107955 C77.3958384,2.96107955 78.2526007,3.37253377 78.9453125,4.19545455 C79.6380243,5.01837533 79.984375,6.10690611 79.984375,7.46107955 C79.984375,8.81525299 79.651045,9.89597135 78.984375,10.703267 C78.317705,11.5157711 77.4244848,11.922017 76.3046875,11.922017 C75.7369763,11.922017 75.2395855,11.8126431 74.8125,11.593892 C74.3854145,11.375141 74.0572928,11.1329559 73.828125,10.8673295 L73.796875,10.8673295 L73.796875,11.6798295 L72.609375,11.6798295 Z M73.921875,6.24232955 L73.921875,8.86732955 C73.921875,9.36733205 74.1302063,9.80482767 74.546875,10.1798295 C74.9635437,10.5548314 75.4817677,10.7397254 76.1015625,10.734517 C76.9401084,10.7293087 77.5781228,10.4402491 78.015625,9.86732955 C78.4531272,9.29441002 78.671875,8.48452228 78.671875,7.43764205 C78.671875,6.39076181 78.4531272,5.58087408 78.015625,5.00795455 C77.5781228,4.43503502 76.9401084,4.14597541 76.1015625,4.14076705 C75.4401009,4.13555869 74.9114603,4.35170236 74.515625,4.78920455 C74.1197897,5.22670674 73.921875,5.71107689 73.921875,6.24232955 Z M82.859375,9.42201705 C82.859375,10.3074381 83.4192652,10.750142 84.5390625,10.750142 C85.3046913,10.750142 85.8984354,10.5782688 86.3203125,10.234517 C86.7369812,9.88555697 86.9427084,9.46108205 86.9375,8.96107955 L86.9375,6.85170455 L86.90625,6.85170455 C86.7604159,7.15899775 86.0364648,7.49493189 84.734375,7.85951705 C84.010413,8.06264306 83.5156263,8.27878674 83.25,8.50795455 C82.989582,8.74233072 82.859375,9.04701517 82.859375,9.42201705 Z M87.0703125,11.6798295 L87.0703125,10.750142 L87.0390625,10.750142 C86.8776034,11.0261851 86.5729189,11.2892033 86.125,11.5392045 C85.6770811,11.7892058 85.1171909,11.9168087 84.4453125,11.922017 C83.5078078,11.922017 82.7968774,11.6928527 82.3125,11.234517 C81.8229142,10.7709731 81.578125,10.1902497 81.578125,9.49232955 C81.578125,8.79440939 81.7942687,8.24753986 82.2265625,7.85170455 C82.6588563,7.45586924 83.2942666,7.15118478 84.1328125,6.93764205 C85.4349023,6.60951541 86.2161445,6.34128892 86.4765625,6.13295455 C86.7317721,5.92462017 86.859375,5.65899783 86.859375,5.33607955 C86.859375,5.00795291 86.7135431,4.72410158 86.421875,4.48451705 C86.1302069,4.24493252 85.6848988,4.12514205 85.0859375,4.12514205 C83.9557235,4.12514205 83.2682304,4.68503228 83.0234375,5.80482955 L81.8359375,5.46889205 C81.9765632,4.72409666 82.3229139,4.11993603 82.875,3.65639205 C83.4270861,3.19284806 84.1718703,2.96107955 85.109375,2.96107955 C86.0468797,2.96107955 86.7994763,3.20326463 87.3671875,3.68764205 C87.940107,4.17201947 88.2239584,4.93242853 88.21875,5.96889205 L88.21875,11.6798295 L87.0703125,11.6798295 Z M95.734375,9.42201705 C95.734375,9.0053483 95.5781266,8.69024728 95.265625,8.47670455 C94.9531234,8.26316181 94.2838593,8.01576845 93.2578125,7.73451705 C92.2317657,7.45326564 91.5052105,7.1303522 91.078125,6.76576705 C90.6510395,6.40639025 90.4375,5.91420767 90.4375,5.28920455 C90.4375,4.66420142 90.6979141,4.11993603 91.21875,3.65639205 C91.7343776,3.19284806 92.4557245,2.96107955 93.3828125,2.96107955 C94.3099005,2.96107955 95.0442681,3.1824315 95.5859375,3.62514205 C96.1276069,4.0678526 96.4921866,4.65638838 96.6796875,5.39076705 L95.5390625,5.69545455 C95.2109359,4.61732416 94.492193,4.07826705 93.3828125,4.07826705 C92.8307264,4.07826705 92.4036473,4.19545338 92.1015625,4.42982955 C91.7994777,4.66420572 91.6510416,4.95066119 91.65625,5.28920455 C91.65625,5.63295627 91.7994777,5.88816205 92.0859375,6.05482955 C92.3723973,6.22149705 93.0494738,6.4558697 94.1171875,6.75795455 C95.1849012,7.06003939 95.9244771,7.41159838 96.3359375,7.81264205 C96.7473979,8.21368572 96.9557291,8.75274283 96.9609375,9.42982955 C96.9713542,10.1069163 96.7057319,10.6902438 96.1640625,11.1798295 C95.6223931,11.6694153 94.8020888,11.9168087 93.703125,11.922017 C92.6041612,11.922017 91.7578155,11.6303533 91.1640625,11.047017 C90.5703095,10.4636808 90.226563,9.7136883 90.1328125,8.79701705 L91.3671875,8.56264205 C91.5286466,10.0470245 92.312493,10.7866004 93.71875,10.781392 C94.3906284,10.781392 94.8932275,10.6589974 95.2265625,10.4142045 C95.5598975,10.1694117 95.7291666,9.8386858 95.734375,9.42201705 Z M99.8203125,6.78139205 L104.867188,6.78139205 C104.846354,6.06784681 104.632815,5.45066549 104.226562,4.92982955 C103.82031,4.40899361 103.200525,4.14857955 102.367188,4.14857955 C101.53385,4.14857955 100.903648,4.42461845 100.476562,4.97670455 C100.049477,5.53920736 99.8307292,6.14076385 99.8203125,6.78139205 Z M102.414062,11.922017 C101.263015,11.922017 100.320316,11.513167 99.5859375,10.6954545 C98.8515588,9.87774213 98.4817709,8.79181549 98.4765625,7.43764205 C98.4765625,6.07826025 98.8359339,4.99233361 99.5546875,4.17982955 C100.273441,3.36732549 101.203119,2.96107955 102.34375,2.96107955 C103.479172,2.96107955 104.398434,3.3621172 105.101562,4.16420455 C105.804691,4.96629189 106.15625,6.05742681 106.15625,7.43764205 L106.15625,7.82045455 L99.7890625,7.82045455 C99.7994792,8.63295861 100.026039,9.32305588 100.46875,9.89076705 C100.911461,10.4584782 101.5651,10.7423295 102.429687,10.7423295 C103.294275,10.7423295 103.947914,10.4558741 104.390625,9.88295455 C104.588543,9.6329533 104.76302,9.36212267 104.914062,9.07045455 L105.96875,9.75795455 C105.65104,10.3777493 105.195315,10.8933692 104.601562,11.3048295 C104.00781,11.7162899 103.27865,11.922017 102.414062,11.922017 Z M113.945312,11.6798295 L113.945312,10.8673295 L113.914062,10.8673295 C113.690103,11.1329559 113.361981,11.375141 112.929688,11.593892 C112.497394,11.8126431 111.997399,11.922017 111.429688,11.922017 C110.30989,11.922017 109.41667,11.5157711 108.75,10.703267 C108.08333,9.89076299 107.75,8.80483635 107.75,7.44545455 C107.75,6.08086439 108.098955,4.99233361 108.796875,4.17982955 C109.494795,3.36732549 110.351557,2.96107955 111.367188,2.96107955 C112.377609,2.96107955 113.182289,3.31263853 113.78125,4.01576705 L113.820312,4.01576705 L113.820312,0.000142048193 L115.132812,0.000142048193 L115.132812,11.6798295 L113.945312,11.6798295 Z M113.820312,8.86732955 L113.820312,6.24232955 C113.820312,5.71107689 113.622398,5.22670674 113.226562,4.78920455 C112.830727,4.35170236 112.302087,4.13555869 111.640625,4.14076705 C110.796871,4.14076705 110.156252,4.42982666 109.71875,5.00795455 C109.281248,5.5912908 109.0625,6.40378267 109.0625,7.44545455 C109.0625,8.48712642 109.281248,9.29701416 109.71875,9.87514205 C110.156252,10.4532699 110.796871,10.7397254 111.640625,10.734517 C112.26042,10.7397254 112.778644,10.5548314 113.195312,10.1798295 C113.611981,9.80482767 113.820312,9.36733205 113.820312,8.86732955 Z M121.765625,1.48451705 L121.765625,0.000142048193 L123.25,0.000142048193 L123.25,1.48451705 L121.765625,1.48451705 Z M120.882812,14.797017 L120.882812,13.5548295 L121.15625,13.5548295 C121.401043,13.5548295 121.583333,13.4923302 121.703125,13.3673295 C121.822917,13.2423289 121.880208,13.0053521 121.875,12.656392 L121.875,3.20326705 L123.1875,3.20326705 L123.1875,12.687642 C123.1875,13.4532709 123.039064,13.9975363 122.742188,14.3204545 C122.445311,14.6433728 122.002607,14.8022254 121.414062,14.797017 L120.882812,14.797017 Z M125.890625,8.71889205 L125.890625,3.20326705 L127.203125,3.20326705 L127.203125,8.53139205 C127.203125,9.32306267 127.354165,9.88295291 127.65625,10.2110795 C127.958335,10.5392062 128.447913,10.703267 129.125,10.703267 C129.802087,10.703267 130.30729,10.5053524 130.640625,10.109517 C130.984377,9.71368174 131.15625,9.16420806 131.15625,8.46107955 L131.15625,3.20326705 L132.453125,3.20326705 L132.453125,11.6798295 L131.171875,11.6798295 L131.171875,10.8673295 L131.140625,10.8673295 C131.088541,10.9402466 131.010417,11.0339956 130.90625,11.1485795 C130.802083,11.2631635 130.552085,11.422016 130.15625,11.625142 C129.765623,11.8230597 129.341148,11.922017 128.882812,11.922017 C127.950516,11.9168087 127.218753,11.6485822 126.6875,11.1173295 C126.156247,10.5860769 125.890625,9.78660572 125.890625,8.71889205 Z M135.164062,11.6798295 L135.164062,3.20326705 L136.445312,3.20326705 L136.445312,4.01576705 L136.476562,4.01576705 C136.710939,3.70847385 137.046873,3.4558722 137.484375,3.25795455 C137.921877,3.06003689 138.380206,2.96107955 138.859375,2.96107955 C139.776046,2.96107955 140.515622,3.24232674 141.078125,3.80482955 C141.640628,4.36733236 141.919271,5.13555385 141.914062,6.10951705 L141.914062,11.6798295 L140.617188,11.6798295 L140.617188,6.53139205 C140.617188,4.95325916 139.968756,4.16160041 138.671875,4.15639205 C138.010413,4.15639205 137.479169,4.34389017 137.078125,4.71889205 C136.677081,5.09389392 136.476562,5.61211791 136.476562,6.27357955 L136.476562,11.6798295 L135.164062,11.6798295 Z M144.554688,1.48451705 L144.554688,0.000142048193 L146.0625,0.000142048193 L146.0625,1.48451705 L144.554688,1.48451705 Z M144.648438,11.6798295 L144.648438,3.20326705 L145.960938,3.20326705 L145.960938,11.6798295 L144.648438,11.6798295 Z M154.789062,10.734517 C154.075517,11.5261877 153.164068,11.922017 152.054688,11.922017 C150.945307,11.922017 150.028649,11.5261877 149.304688,10.734517 C148.575517,9.94284642 148.210938,8.84910736 148.210938,7.45326705 C148.210938,6.05742674 148.585934,4.95847939 149.335938,4.15639205 C150.085941,3.35951306 150.994786,2.96107955 152.0625,2.96107955 C153.135422,2.96107955 154.036455,3.3621172 154.765625,4.16420455 C155.494795,4.96629189 155.859375,6.0626351 155.859375,7.45326705 C155.859375,8.84910736 155.502608,9.94284642 154.789062,10.734517 Z M152.046875,10.734517 C152.776045,10.7397254 153.377602,10.4506658 153.851562,9.86732955 C154.325523,9.2839933 154.5625,8.47410556 154.5625,7.43764205 C154.5625,6.40117853 154.328127,5.5912908 153.859375,5.00795455 C153.390623,4.4246183 152.789066,4.13555869 152.054688,4.14076705 C151.3151,4.14076705 150.705732,4.42722252 150.226562,5.00014205 C149.747393,5.57826994 149.507812,6.39336595 149.507812,7.44545455 C149.507812,8.49754314 149.747393,9.31003502 150.226562,9.88295455 C150.71094,10.4506657 151.317705,10.734517 152.046875,10.734517 Z M158.015625,11.6798295 L158.015625,3.20326705 L159.265625,3.20326705 L159.265625,4.10951705 L159.296875,4.10951705 C159.468751,3.76055697 159.718748,3.49753877 160.046875,3.32045455 C160.375002,3.14337033 160.679686,3.05482955 160.960937,3.05482955 C161.242189,3.05482955 161.492186,3.09128752 161.710937,3.16420455 L161.789062,3.21889205 L161.554687,4.50795455 C161.393228,4.4246208 161.169272,4.38295455 160.882812,4.38295455 C160.346351,4.38295455 159.953126,4.56264025 159.703125,4.92201705 C159.453124,5.28139385 159.328125,5.85430478 159.328125,6.64076705 L159.328125,11.6798295 L158.015625,11.6798295 Z M167.546875,8.71889205 L167.546875,3.20326705 L168.859375,3.20326705 L168.859375,8.53139205 C168.859375,9.32306267 169.010415,9.88295291 169.3125,10.2110795 C169.614585,10.5392062 170.104163,10.703267 170.78125,10.703267 C171.458337,10.703267 171.96354,10.5053524 172.296875,10.109517 C172.640627,9.71368174 172.8125,9.16420806 172.8125,8.46107955 L172.8125,3.20326705 L174.109375,3.20326705 L174.109375,11.6798295 L172.828125,11.6798295 L172.828125,10.8673295 L172.796875,10.8673295 C172.744791,10.9402466 172.666667,11.0339956 172.5625,11.1485795 C172.458333,11.2631635 172.208335,11.422016 171.8125,11.625142 C171.421873,11.8230597 170.997398,11.922017 170.539062,11.922017 C169.606766,11.9168087 168.875003,11.6485822 168.34375,11.1173295 C167.812497,10.5860769 167.546875,9.78660572 167.546875,8.71889205 Z M181.78125,9.42201705 C181.78125,9.0053483 181.625002,8.69024728 181.3125,8.47670455 C180.999998,8.26316181 180.330734,8.01576845 179.304688,7.73451705 C178.278641,7.45326564 177.552085,7.1303522 177.125,6.76576705 C176.697915,6.40639025 176.484375,5.91420767 176.484375,5.28920455 C176.484375,4.66420142 176.744789,4.11993603 177.265625,3.65639205 C177.781253,3.19284806 178.5026,2.96107955 179.429688,2.96107955 C180.356775,2.96107955 181.091143,3.1824315 181.632812,3.62514205 C182.174482,4.0678526 182.539062,4.65638838 182.726562,5.39076705 L181.585938,5.69545455 C181.257811,4.61732416 180.539068,4.07826705 179.429688,4.07826705 C178.877601,4.07826705 178.450522,4.19545338 178.148438,4.42982955 C177.846353,4.66420572 177.697917,4.95066119 177.703125,5.28920455 C177.703125,5.63295627 177.846353,5.88816205 178.132812,6.05482955 C178.419272,6.22149705 179.096349,6.4558697 180.164062,6.75795455 C181.231776,7.06003939 181.971352,7.41159838 182.382812,7.81264205 C182.794273,8.21368572 183.002604,8.75274283 183.007812,9.42982955 C183.018229,10.1069163 182.752607,10.6902438 182.210938,11.1798295 C181.669268,11.6694153 180.848964,11.9168087 179.75,11.922017 C178.651036,11.922017 177.80469,11.6303533 177.210938,11.047017 C176.617185,10.4636808 176.273438,9.7136883 176.179688,8.79701705 L177.414062,8.56264205 C177.575522,10.0470245 178.359368,10.7866004 179.765625,10.781392 C180.437503,10.781392 180.940103,10.6589974 181.273438,10.4142045 C181.606773,10.1694117 181.776042,9.8386858 181.78125,9.42201705 Z M185.867188,6.78139205 L190.914062,6.78139205 C190.893229,6.06784681 190.67969,5.45066549 190.273438,4.92982955 C189.867185,4.40899361 189.2474,4.14857955 188.414062,4.14857955 C187.580725,4.14857955 186.950523,4.42461845 186.523438,4.97670455 C186.096352,5.53920736 185.877604,6.14076385 185.867188,6.78139205 Z M188.460938,11.922017 C187.30989,11.922017 186.367191,11.513167 185.632812,10.6954545 C184.898434,9.87774213 184.528646,8.79181549 184.523438,7.43764205 C184.523438,6.07826025 184.882809,4.99233361 185.601562,4.17982955 C186.320316,3.36732549 187.249994,2.96107955 188.390625,2.96107955 C189.526047,2.96107955 190.445309,3.3621172 191.148438,4.16420455 C191.851566,4.96629189 192.203125,6.05742681 192.203125,7.43764205 L192.203125,7.82045455 L185.835938,7.82045455 C185.846354,8.63295861 186.072914,9.32305588 186.515625,9.89076705 C186.958336,10.4584782 187.611975,10.7423295 188.476562,10.7423295 C189.34115,10.7423295 189.994789,10.4558741 190.4375,9.88295455 C190.635418,9.6329533 190.809895,9.36212267 190.960938,9.07045455 L192.015625,9.75795455 C191.697915,10.3777493 191.24219,10.8933692 190.648438,11.3048295 C190.054685,11.7162899 189.325525,11.922017 188.460938,11.922017 Z M194.359375,11.6798295 L194.359375,3.20326705 L195.609375,3.20326705 L195.609375,4.10951705 L195.640625,4.10951705 C195.812501,3.76055697 196.062498,3.49753877 196.390625,3.32045455 C196.718752,3.14337033 197.023436,3.05482955 197.304688,3.05482955 C197.585939,3.05482955 197.835936,3.09128752 198.054688,3.16420455 L198.132812,3.21889205 L197.898438,4.50795455 C197.736978,4.4246208 197.513022,4.38295455 197.226562,4.38295455 C196.690101,4.38295455 196.296876,4.56264025 196.046875,4.92201705 C195.796874,5.28139385 195.671875,5.85430478 195.671875,6.64076705 L195.671875,11.6798295 L194.359375,11.6798295 Z M203.96875,1.48451705 L203.96875,0.000142048193 L205.476562,0.000142048193 L205.476562,1.48451705 L203.96875,1.48451705 Z M204.0625,11.6798295 L204.0625,3.20326705 L205.375,3.20326705 L205.375,11.6798295 L204.0625,11.6798295 Z M208.1875,11.6798295 L208.1875,3.20326705 L209.46875,3.20326705 L209.46875,4.01576705 L209.5,4.01576705 C209.734376,3.70847385 210.07031,3.4558722 210.507812,3.25795455 C210.945315,3.06003689 211.403643,2.96107955 211.882812,2.96107955 C212.799484,2.96107955 213.53906,3.24232674 214.101562,3.80482955 C214.664065,4.36733236 214.942708,5.13555385 214.9375,6.10951705 L214.9375,11.6798295 L213.640625,11.6798295 L213.640625,6.53139205 C213.640625,4.95325916 212.992194,4.16160041 211.695312,4.15639205 C211.033851,4.15639205 210.502606,4.34389017 210.101562,4.71889205 C209.700519,5.09389392 209.5,5.61211791 209.5,6.27357955 L209.5,11.6798295 L208.1875,11.6798295 Z M217.882812,9.21889205 L217.882812,4.36732955 L216.695312,4.36732955 L216.695312,3.20326705 L217.914062,3.20326705 L217.914062,1.11732955 L219.164062,1.11732955 L219.164062,3.20326705 L221.257812,3.20326705 L221.257812,4.36732955 L219.179688,4.36732955 L219.179688,9.05482955 C219.179688,9.55483205 219.249999,9.90639103 219.390625,10.109517 C219.531251,10.3126431 219.80729,10.4142045 220.21875,10.4142045 L220.859375,10.4142045 L220.859375,11.6798295 L220.15625,11.6798295 C219.354163,11.6798295 218.776043,11.4767066 218.421875,11.0704545 C218.067707,10.6642025 217.888021,10.0470212 217.882812,9.21889205 Z M224.117188,6.78139205 L229.164062,6.78139205 C229.143229,6.06784681 228.92969,5.45066549 228.523438,4.92982955 C228.117185,4.40899361 227.4974,4.14857955 226.664062,4.14857955 C225.830725,4.14857955 225.200523,4.42461845 224.773438,4.97670455 C224.346352,5.53920736 224.127604,6.14076385 224.117188,6.78139205 Z M226.710938,11.922017 C225.55989,11.922017 224.617191,11.513167 223.882812,10.6954545 C223.148434,9.87774213 222.778646,8.79181549 222.773438,7.43764205 C222.773438,6.07826025 223.132809,4.99233361 223.851562,4.17982955 C224.570316,3.36732549 225.499994,2.96107955 226.640625,2.96107955 C227.776047,2.96107955 228.695309,3.3621172 229.398438,4.16420455 C230.101566,4.96629189 230.453125,6.05742681 230.453125,7.43764205 L230.453125,7.82045455 L224.085938,7.82045455 C224.096354,8.63295861 224.322914,9.32305588 224.765625,9.89076705 C225.208336,10.4584782 225.861975,10.7423295 226.726562,10.7423295 C227.59115,10.7423295 228.244789,10.4558741 228.6875,9.88295455 C228.885418,9.6329533 229.059895,9.36212267 229.210938,9.07045455 L230.265625,9.75795455 C229.947915,10.3777493 229.49219,10.8933692 228.898438,11.3048295 C228.304685,11.7162899 227.575525,11.922017 226.710938,11.922017 Z M232.609375,11.6798295 L232.609375,3.20326705 L233.859375,3.20326705 L233.859375,4.10951705 L233.890625,4.10951705 C234.062501,3.76055697 234.312498,3.49753877 234.640625,3.32045455 C234.968752,3.14337033 235.273436,3.05482955 235.554688,3.05482955 C235.835939,3.05482955 236.085936,3.09128752 236.304688,3.16420455 L236.382812,3.21889205 L236.148438,4.50795455 C235.986978,4.4246208 235.763022,4.38295455 235.476562,4.38295455 C234.940101,4.38295455 234.546876,4.56264025 234.296875,4.92201705 C234.046874,5.28139385 233.921875,5.85430478 233.921875,6.64076705 L233.921875,11.6798295 L232.609375,11.6798295 Z M238.523438,11.6798295 L238.523438,4.36732955 L237.335938,4.36732955 L237.335938,3.20326705 L238.539062,3.20326705 L238.539062,1.90639205 C238.539062,1.19284681 238.697915,0.695455954 239.015625,0.414204548 C239.333335,0.132953142 239.794268,-0.00506631118 240.398438,0.000142048193 L241.757812,0.000142048193 L241.757812,1.16420455 L240.632812,1.16420455 C240.304686,1.16420455 240.083334,1.22930806 239.96875,1.35951705 C239.854166,1.48972603 239.799479,1.75534838 239.804688,2.15639205 L239.804688,3.20326705 L241.898438,3.20326705 L241.898438,4.36732955 L239.820312,4.36732955 L239.820312,11.6798295 L238.523438,11.6798295 Z M244.210938,9.42201705 C244.210938,10.3074381 244.770828,10.750142 245.890625,10.750142 C246.656254,10.750142 247.249998,10.5782688 247.671875,10.234517 C248.088544,9.88555697 248.294271,9.46108205 248.289062,8.96107955 L248.289062,6.85170455 L248.257812,6.85170455 C248.111978,7.15899775 247.388027,7.49493189 246.085938,7.85951705 C245.361976,8.06264306 244.867189,8.27878674 244.601562,8.50795455 C244.341145,8.74233072 244.210938,9.04701517 244.210938,9.42201705 Z M248.421875,11.6798295 L248.421875,10.750142 L248.390625,10.750142 C248.229166,11.0261851 247.924481,11.2892033 247.476562,11.5392045 C247.028644,11.7892058 246.468753,11.9168087 245.796875,11.922017 C244.85937,11.922017 244.14844,11.6928527 243.664062,11.234517 C243.174477,10.7709731 242.929688,10.1902497 242.929688,9.49232955 C242.929688,8.79440939 243.145831,8.24753986 243.578125,7.85170455 C244.010419,7.45586924 244.645829,7.15118478 245.484375,6.93764205 C246.786465,6.60951541 247.567707,6.34128892 247.828125,6.13295455 C248.083335,5.92462017 248.210938,5.65899783 248.210938,5.33607955 C248.210938,5.00795291 248.065106,4.72410158 247.773438,4.48451705 C247.481769,4.24493252 247.036461,4.12514205 246.4375,4.12514205 C245.307286,4.12514205 244.619793,4.68503228 244.375,5.80482955 L243.1875,5.46889205 C243.328126,4.72409666 243.674476,4.11993603 244.226562,3.65639205 C244.778649,3.19284806 245.523433,2.96107955 246.460938,2.96107955 C247.398442,2.96107955 248.151039,3.20326463 248.71875,3.68764205 C249.29167,4.17201947 249.575521,4.93242853 249.570312,5.96889205 L249.570312,11.6798295 L248.421875,11.6798295 Z M255.421875,11.922017 C254.281244,11.922017 253.35417,11.5235835 252.640625,10.7267045 C251.921871,9.92982556 251.5625,8.83869064 251.5625,7.45326705 C251.5625,6.06784345 251.932288,4.97150025 252.671875,4.16420455 C253.411462,3.35690885 254.32812,2.95587119 255.421875,2.96107955 C256.32813,2.96107955 257.098955,3.24753502 257.734375,3.82045455 C258.369795,4.39337408 258.755208,5.14076244 258.890625,6.06264205 L257.664062,6.32045455 C257.533854,5.69024306 257.28646,5.16941494 256.921875,4.75795455 C256.55729,4.34649416 256.026045,4.14076705 255.328125,4.14076705 C254.630205,4.14076705 254.041669,4.4324308 253.5625,5.01576705 C253.093748,5.59389494 252.859375,6.39857439 252.859375,7.42982955 C252.859375,8.4610847 253.088539,9.27097244 253.546875,9.85951705 C254.005211,10.4480617 254.635413,10.7397254 255.4375,10.734517 C256.067711,10.734517 256.580727,10.5079568 256.976562,10.0548295 C257.372398,9.60170228 257.611979,9.06004103 257.695312,8.42982955 L258.960937,8.68764205 C258.820312,9.66681361 258.429691,10.4506599 257.789062,11.0392045 C257.148434,11.6277492 256.35938,11.922017 255.421875,11.922017 Z M261.8125,6.78139205 L266.859375,6.78139205 C266.838542,6.06784681 266.625002,5.45066549 266.21875,4.92982955 C265.812498,4.40899361 265.192713,4.14857955 264.359375,4.14857955 C263.526038,4.14857955 262.895835,4.42461845 262.46875,4.97670455 C262.041665,5.53920736 261.822917,6.14076385 261.8125,6.78139205 Z M264.40625,11.922017 C263.255203,11.922017 262.312504,11.513167 261.578125,10.6954545 C260.843746,9.87774213 260.473958,8.79181549 260.46875,7.43764205 C260.46875,6.07826025 260.828121,4.99233361 261.546875,4.17982955 C262.265629,3.36732549 263.195307,2.96107955 264.335938,2.96107955 C265.47136,2.96107955 266.390621,3.3621172 267.09375,4.16420455 C267.796879,4.96629189 268.148438,6.05742681 268.148438,7.43764205 L268.148438,7.82045455 L261.78125,7.82045455 C261.791667,8.63295861 262.018227,9.32305588 262.460938,9.89076705 C262.903648,10.4584782 263.557287,10.7423295 264.421875,10.7423295 C265.286463,10.7423295 265.940102,10.4558741 266.382812,9.88295455 C266.58073,9.6329533 266.755208,9.36212267 266.90625,9.07045455 L267.960938,9.75795455 C267.643228,10.3777493 267.187503,10.8933692 266.59375,11.3048295 C265.999997,11.7162899 265.270838,11.922017 264.40625,11.922017 Z M275.265625,8.60951705 C275.265625,9.29181213 275.528643,9.80482783 276.054687,10.1485795 C276.575523,10.4923313 277.200517,10.6668087 277.929687,10.672017 C278.658858,10.6668087 279.242185,10.5079561 279.679687,10.1954545 C280.11719,9.88295299 280.395833,9.47149877 280.515625,8.96107955 L277.039062,5.92201705 C275.856765,6.57306197 275.265625,7.46888635 275.265625,8.60951705 Z M277.820312,11.922017 C276.789057,11.9272254 275.893233,11.6537906 275.132812,11.1017045 C274.372392,10.5496185 273.989583,9.744939 273.984375,8.68764205 C273.984375,7.25013486 274.71093,6.07045916 276.164062,5.14857955 C275.455726,4.44545103 275.101562,3.71108338 275.101562,2.94545455 C275.101562,2.18503408 275.372393,1.54441549 275.914062,1.02357955 C276.455732,0.502743611 277.148433,0.242329548 277.992187,0.242329548 C278.830733,0.242329548 279.518226,0.455869079 280.054687,0.882954548 C280.591149,1.31004002 280.929687,1.92201306 281.070312,2.71889205 L279.890625,2.97670455 C279.656249,1.94024103 279.041672,1.42201705 278.046875,1.42201705 C277.536456,1.42201705 277.138022,1.5600365 276.851562,1.83607955 C276.559894,2.1121226 276.414062,2.44024431 276.414062,2.82045455 C276.414062,3.20066478 276.489583,3.50795338 276.640625,3.74232955 C276.791667,3.97670572 277.02604,4.2319115 277.34375,4.50795455 L280.6875,7.43764205 L280.6875,5.40639205 L281.875,5.40639205 L281.875,8.44545455 L283.90625,10.1954545 L283.101562,11.1485795 L281.539062,9.78920455 C281.32552,10.3881659 280.908857,10.8933692 280.289062,11.3048295 C279.674476,11.7162899 278.851568,11.922017 277.820312,11.922017 Z M290.445312,6.78139205 L295.492188,6.78139205 C295.471354,6.06784681 295.257815,5.45066549 294.851562,4.92982955 C294.44531,4.40899361 293.825525,4.14857955 292.992188,4.14857955 C292.15885,4.14857955 291.528648,4.42461845 291.101562,4.97670455 C290.674477,5.53920736 290.455729,6.14076385 290.445312,6.78139205 Z M293.039062,11.922017 C291.888015,11.922017 290.945316,11.513167 290.210937,10.6954545 C289.476559,9.87774213 289.106771,8.79181549 289.101562,7.43764205 C289.101562,6.07826025 289.460934,4.99233361 290.179687,4.17982955 C290.898441,3.36732549 291.828119,2.96107955 292.96875,2.96107955 C294.104172,2.96107955 295.023434,3.3621172 295.726562,4.16420455 C296.429691,4.96629189 296.78125,6.05742681 296.78125,7.43764205 L296.78125,7.82045455 L290.414062,7.82045455 C290.424479,8.63295861 290.651039,9.32305588 291.09375,9.89076705 C291.536461,10.4584782 292.1901,10.7423295 293.054687,10.7423295 C293.919275,10.7423295 294.572914,10.4558741 295.015625,9.88295455 C295.213543,9.6329533 295.38802,9.36212267 295.539062,9.07045455 L296.59375,9.75795455 C296.27604,10.3777493 295.820315,10.8933692 295.226562,11.3048295 C294.63281,11.7162899 293.90365,11.922017 293.039062,11.922017 Z M297.976562,11.6798295 L300.84375,7.32826705 L298.15625,3.20326705 L299.59375,3.20326705 L301.65625,6.46107955 L301.6875,6.46107955 L303.757812,3.20326705 L305.179688,3.20326705 L302.507812,7.32826705 L305.367188,11.6798295 L303.914062,11.6798295 L301.671875,8.19545455 L301.640625,8.19545455 L299.4375,11.6798295 L297.976562,11.6798295 Z M307.125,15.281392 L307.125,3.20326705 L308.375,3.20326705 L308.375,4.01576705 L308.40625,4.01576705 C308.619793,3.75014072 308.940102,3.50795564 309.367188,3.28920455 C309.794273,3.07045345 310.283851,2.96107955 310.835938,2.96107955 C311.893234,2.96107955 312.773434,3.36992963 313.476562,4.18764205 C314.179691,5.00535447 314.53125,6.09128111 314.53125,7.44545455 C314.53125,8.79962799 314.190108,9.88555463 313.507812,10.703267 C312.825517,11.5157711 311.934901,11.922017 310.835938,11.922017 C310.315102,11.922017 309.83594,11.810039 309.398438,11.5860795 C308.960935,11.3621201 308.651043,11.1225392 308.46875,10.8673295 L308.4375,10.8673295 L308.4375,15.281392 L307.125,15.281392 Z M308.4375,6.21107955 L308.4375,8.89857955 C308.4375,9.38816533 308.645831,9.81784853 309.0625,10.187642 C309.479169,10.5574356 309.997393,10.7397254 310.617188,10.734517 C311.46615,10.7293087 312.114581,10.4402491 312.5625,9.86732955 C313.010419,9.29441002 313.234375,8.48712642 313.234375,7.44545455 C313.234375,6.40378267 313.005211,5.5912908 312.546875,5.00795455 C312.088539,4.4246183 311.445317,4.13555869 310.617188,4.14076705 C309.966143,4.14597541 309.440106,4.36211908 309.039062,4.78920455 C308.638019,5.21629002 308.4375,5.69024361 308.4375,6.21107955 Z M317.46875,6.78139205 L322.515625,6.78139205 C322.494792,6.06784681 322.281252,5.45066549 321.875,4.92982955 C321.468748,4.40899361 320.848962,4.14857955 320.015625,4.14857955 C319.182288,4.14857955 318.552085,4.42461845 318.125,4.97670455 C317.697915,5.53920736 317.479167,6.14076385 317.46875,6.78139205 Z M320.0625,11.922017 C318.911453,11.922017 317.968754,11.513167 317.234375,10.6954545 C316.499996,9.87774213 316.130208,8.79181549 316.125,7.43764205 C316.125,6.07826025 316.484371,4.99233361 317.203125,4.17982955 C317.921879,3.36732549 318.851557,2.96107955 319.992187,2.96107955 C321.12761,2.96107955 322.046871,3.3621172 322.75,4.16420455 C323.453129,4.96629189 323.804687,6.05742681 323.804687,7.43764205 L323.804687,7.82045455 L317.4375,7.82045455 C317.447917,8.63295861 317.674477,9.32305588 318.117187,9.89076705 C318.559898,10.4584782 319.213537,10.7423295 320.078125,10.7423295 C320.942713,10.7423295 321.596352,10.4558741 322.039062,9.88295455 C322.23698,9.6329533 322.411458,9.36212267 322.5625,9.07045455 L323.617187,9.75795455 C323.299478,10.3777493 322.843753,10.8933692 322.25,11.3048295 C321.656247,11.7162899 320.927088,11.922017 320.0625,11.922017 Z M325.960938,11.6798295 L325.960938,3.20326705 L327.210938,3.20326705 L327.210938,4.10951705 L327.242188,4.10951705 C327.414063,3.76055697 327.664061,3.49753877 327.992188,3.32045455 C328.320314,3.14337033 328.624999,3.05482955 328.90625,3.05482955 C329.187501,3.05482955 329.437499,3.09128752 329.65625,3.16420455 L329.734375,3.21889205 L329.5,4.50795455 C329.338541,4.4246208 329.114585,4.38295455 328.828125,4.38295455 C328.291664,4.38295455 327.898439,4.56264025 327.648438,4.92201705 C327.398436,5.28139385 327.273438,5.85430478 327.273438,6.64076705 L327.273438,11.6798295 L325.960938,11.6798295 Z M331.570312,1.48451705 L331.570312,0.000142048193 L333.078125,0.000142048193 L333.078125,1.48451705 L331.570312,1.48451705 Z M331.664062,11.6798295 L331.664062,3.20326705 L332.976562,3.20326705 L332.976562,11.6798295 L331.664062,11.6798295 Z M336.570312,6.78139205 L341.617188,6.78139205 C341.596354,6.06784681 341.382815,5.45066549 340.976562,4.92982955 C340.57031,4.40899361 339.950525,4.14857955 339.117188,4.14857955 C338.28385,4.14857955 337.653648,4.42461845 337.226562,4.97670455 C336.799477,5.53920736 336.580729,6.14076385 336.570312,6.78139205 Z M339.164062,11.922017 C338.013015,11.922017 337.070316,11.513167 336.335937,10.6954545 C335.601559,9.87774213 335.231771,8.79181549 335.226562,7.43764205 C335.226562,6.07826025 335.585934,4.99233361 336.304687,4.17982955 C337.023441,3.36732549 337.953119,2.96107955 339.09375,2.96107955 C340.229172,2.96107955 341.148434,3.3621172 341.851562,4.16420455 C342.554691,4.96629189 342.90625,6.05742681 342.90625,7.43764205 L342.90625,7.82045455 L336.539062,7.82045455 C336.549479,8.63295861 336.776039,9.32305588 337.21875,9.89076705 C337.661461,10.4584782 338.3151,10.7423295 339.179687,10.7423295 C340.044275,10.7423295 340.697914,10.4558741 341.140625,9.88295455 C341.338543,9.6329533 341.51302,9.36212267 341.664062,9.07045455 L342.71875,9.75795455 C342.40104,10.3777493 341.945315,10.8933692 341.351562,11.3048295 C340.75781,11.7162899 340.02865,11.922017 339.164062,11.922017 Z M345.0625,11.6798295 L345.0625,3.20326705 L346.34375,3.20326705 L346.34375,4.01576705 L346.375,4.01576705 C346.609376,3.70847385 346.94531,3.4558722 347.382812,3.25795455 C347.820315,3.06003689 348.278643,2.96107955 348.757812,2.96107955 C349.674484,2.96107955 350.41406,3.24232674 350.976562,3.80482955 C351.539065,4.36733236 351.817708,5.13555385 351.8125,6.10951705 L351.8125,11.6798295 L350.515625,11.6798295 L350.515625,6.53139205 C350.515625,4.95325916 349.867194,4.16160041 348.570312,4.15639205 C347.908851,4.15639205 347.377606,4.34389017 346.976562,4.71889205 C346.575519,5.09389392 346.375,5.61211791 346.375,6.27357955 L346.375,11.6798295 L345.0625,11.6798295 Z M357.75,11.922017 C356.609369,11.922017 355.682295,11.5235835 354.96875,10.7267045 C354.249996,9.92982556 353.890625,8.83869064 353.890625,7.45326705 C353.890625,6.06784345 354.260413,4.97150025 355,4.16420455 C355.739587,3.35690885 356.656245,2.95587119 357.75,2.96107955 C358.656255,2.96107955 359.42708,3.24753502 360.0625,3.82045455 C360.69792,4.39337408 361.083333,5.14076244 361.21875,6.06264205 L359.992187,6.32045455 C359.861979,5.69024306 359.614585,5.16941494 359.25,4.75795455 C358.885415,4.34649416 358.35417,4.14076705 357.65625,4.14076705 C356.95833,4.14076705 356.369794,4.4324308 355.890625,5.01576705 C355.421873,5.59389494 355.1875,6.39857439 355.1875,7.42982955 C355.1875,8.4610847 355.416664,9.27097244 355.875,9.85951705 C356.333336,10.4480617 356.963538,10.7397254 357.765625,10.734517 C358.395836,10.734517 358.908852,10.5079568 359.304687,10.0548295 C359.700523,9.60170228 359.940104,9.06004103 360.023437,8.42982955 L361.289062,8.68764205 C361.148437,9.66681361 360.757816,10.4506599 360.117187,11.0392045 C359.476559,11.6277492 358.687505,11.922017 357.75,11.922017 Z M364.140625,6.78139205 L369.1875,6.78139205 C369.166667,6.06784681 368.953127,5.45066549 368.546875,4.92982955 C368.140623,4.40899361 367.520837,4.14857955 366.6875,4.14857955 C365.854163,4.14857955 365.22396,4.42461845 364.796875,4.97670455 C364.36979,5.53920736 364.151042,6.14076385 364.140625,6.78139205 Z M366.734375,11.922017 C365.583328,11.922017 364.640629,11.513167 363.90625,10.6954545 C363.171871,9.87774213 362.802083,8.79181549 362.796875,7.43764205 C362.796875,6.07826025 363.156246,4.99233361 363.875,4.17982955 C364.593754,3.36732549 365.523432,2.96107955 366.664062,2.96107955 C367.799485,2.96107955 368.718746,3.3621172 369.421875,4.16420455 C370.125004,4.96629189 370.476562,6.05742681 370.476562,7.43764205 L370.476562,7.82045455 L364.109375,7.82045455 C364.119792,8.63295861 364.346352,9.32305588 364.789062,9.89076705 C365.231773,10.4584782 365.885412,10.7423295 366.75,10.7423295 C367.614588,10.7423295 368.268227,10.4558741 368.710938,9.88295455 C368.908855,9.6329533 369.083333,9.36212267 369.234375,9.07045455 L370.289062,9.75795455 C369.971353,10.3777493 369.515628,10.8933692 368.921875,11.3048295 C368.328122,11.7162899 367.598963,11.922017 366.734375,11.922017 Z M382.265625,11.6798295 L382.265625,10.8673295 L382.234375,10.8673295 C382.010416,11.1329559 381.682294,11.375141 381.25,11.593892 C380.817706,11.8126431 380.317711,11.922017 379.75,11.922017 C378.630203,11.922017 377.736983,11.5157711 377.070312,10.703267 C376.403642,9.89076299 376.070312,8.80483635 376.070312,7.44545455 C376.070312,6.08086439 376.419267,4.99233361 377.117188,4.17982955 C377.815108,3.36732549 378.67187,2.96107955 379.6875,2.96107955 C380.697922,2.96107955 381.502601,3.31263853 382.101562,4.01576705 L382.140625,4.01576705 L382.140625,0.000142048193 L383.453125,0.000142048193 L383.453125,11.6798295 L382.265625,11.6798295 Z M382.140625,8.86732955 L382.140625,6.24232955 C382.140625,5.71107689 381.94271,5.22670674 381.546875,4.78920455 C381.15104,4.35170236 380.622399,4.13555869 379.960938,4.14076705 C379.117183,4.14076705 378.476565,4.42982666 378.039062,5.00795455 C377.60156,5.5912908 377.382812,6.40378267 377.382812,7.44545455 C377.382812,8.48712642 377.60156,9.29701416 378.039062,9.87514205 C378.476565,10.4532699 379.117183,10.7397254 379.960938,10.734517 C380.580732,10.7397254 381.098956,10.5548314 381.515625,10.1798295 C381.932294,9.80482767 382.140625,9.36733205 382.140625,8.86732955 Z M386.945312,6.78139205 L391.992188,6.78139205 C391.971354,6.06784681 391.757815,5.45066549 391.351562,4.92982955 C390.94531,4.40899361 390.325525,4.14857955 389.492188,4.14857955 C388.65885,4.14857955 388.028648,4.42461845 387.601562,4.97670455 C387.174477,5.53920736 386.955729,6.14076385 386.945312,6.78139205 Z M389.539062,11.922017 C388.388015,11.922017 387.445316,11.513167 386.710937,10.6954545 C385.976559,9.87774213 385.606771,8.79181549 385.601562,7.43764205 C385.601562,6.07826025 385.960934,4.99233361 386.679687,4.17982955 C387.398441,3.36732549 388.328119,2.96107955 389.46875,2.96107955 C390.604172,2.96107955 391.523434,3.3621172 392.226562,4.16420455 C392.929691,4.96629189 393.28125,6.05742681 393.28125,7.43764205 L393.28125,7.82045455 L386.914062,7.82045455 C386.924479,8.63295861 387.151039,9.32305588 387.59375,9.89076705 C388.036461,10.4584782 388.6901,10.7423295 389.554687,10.7423295 C390.419275,10.7423295 391.072914,10.4558741 391.515625,9.88295455 C391.713543,9.6329533 391.88802,9.36212267 392.039062,9.07045455 L393.09375,9.75795455 C392.77604,10.3777493 392.320315,10.8933692 391.726562,11.3048295 C391.13281,11.7162899 390.40365,11.922017 389.539062,11.922017 Z M397.898438,11.6798295 L394.476562,3.20326705 L395.820312,3.20326705 L398.414062,9.83607955 L398.445312,9.83607955 L401.039062,3.20326705 L402.382812,3.20326705 L398.960938,11.6798295 L397.898438,11.6798295 Z M404.921875,6.78139205 L409.96875,6.78139205 C409.947917,6.06784681 409.734377,5.45066549 409.328125,4.92982955 C408.921873,4.40899361 408.302087,4.14857955 407.46875,4.14857955 C406.635412,4.14857955 406.00521,4.42461845 405.578125,4.97670455 C405.15104,5.53920736 404.932292,6.14076385 404.921875,6.78139205 Z M407.515625,11.922017 C406.364578,11.922017 405.421879,11.513167 404.6875,10.6954545 C403.953121,9.87774213 403.583333,8.79181549 403.578125,7.43764205 C403.578125,6.07826025 403.937496,4.99233361 404.65625,4.17982955 C405.375004,3.36732549 406.304682,2.96107955 407.445312,2.96107955 C408.580735,2.96107955 409.499996,3.3621172 410.203125,4.16420455 C410.906254,4.96629189 411.257812,6.05742681 411.257812,7.43764205 L411.257812,7.82045455 L404.890625,7.82045455 C404.901042,8.63295861 405.127602,9.32305588 405.570312,9.89076705 C406.013023,10.4584782 406.666662,10.7423295 407.53125,10.7423295 C408.395838,10.7423295 409.049477,10.4558741 409.492188,9.88295455 C409.690105,9.6329533 409.864583,9.36212267 410.015625,9.07045455 L411.070312,9.75795455 C410.752603,10.3777493 410.296878,10.8933692 409.703125,11.3048295 C409.109372,11.7162899 408.380213,11.922017 407.515625,11.922017 Z M413.414062,11.6798295 L413.414062,0.000142048193 L414.742187,0.000142048193 L414.742187,11.6798295 L413.414062,11.6798295 Z M423.476562,10.734517 C422.763017,11.5261877 421.851568,11.922017 420.742188,11.922017 C419.632807,11.922017 418.716149,11.5261877 417.992188,10.734517 C417.263017,9.94284642 416.898438,8.84910736 416.898438,7.45326705 C416.898438,6.05742674 417.273434,4.95847939 418.023438,4.15639205 C418.773441,3.35951306 419.682286,2.96107955 420.75,2.96107955 C421.822922,2.96107955 422.723955,3.3621172 423.453125,4.16420455 C424.182295,4.96629189 424.546875,6.0626351 424.546875,7.45326705 C424.546875,8.84910736 424.190108,9.94284642 423.476562,10.734517 Z M420.734375,10.734517 C421.463545,10.7397254 422.065102,10.4506658 422.539062,9.86732955 C423.013023,9.2839933 423.25,8.47410556 423.25,7.43764205 C423.25,6.40117853 423.015627,5.5912908 422.546875,5.00795455 C422.078123,4.4246183 421.476566,4.13555869 420.742187,4.14076705 C420.0026,4.14076705 419.393232,4.42722252 418.914062,5.00014205 C418.434893,5.57826994 418.195312,6.39336595 418.195312,7.44545455 C418.195312,8.49754314 418.434893,9.31003502 418.914062,9.88295455 C419.39844,10.4506657 420.005205,10.734517 420.734375,10.734517 Z M426.703125,15.281392 L426.703125,3.20326705 L427.953125,3.20326705 L427.953125,4.01576705 L427.984375,4.01576705 C428.197918,3.75014072 428.518227,3.50795564 428.945312,3.28920455 C429.372398,3.07045345 429.861976,2.96107955 430.414062,2.96107955 C431.471359,2.96107955 432.351559,3.36992963 433.054688,4.18764205 C433.757816,5.00535447 434.109375,6.09128111 434.109375,7.44545455 C434.109375,8.79962799 433.768233,9.88555463 433.085938,10.703267 C432.403642,11.5157711 431.513026,11.922017 430.414062,11.922017 C429.893227,11.922017 429.414065,11.810039 428.976562,11.5860795 C428.53906,11.3621201 428.229168,11.1225392 428.046875,10.8673295 L428.015625,10.8673295 L428.015625,15.281392 L426.703125,15.281392 Z M428.015625,6.21107955 L428.015625,8.89857955 C428.015625,9.38816533 428.223956,9.81784853 428.640625,10.187642 C429.057294,10.5574356 429.575518,10.7397254 430.195312,10.734517 C431.044275,10.7293087 431.692706,10.4402491 432.140625,9.86732955 C432.588544,9.29441002 432.8125,8.48712642 432.8125,7.44545455 C432.8125,6.40378267 432.583336,5.5912908 432.125,5.00795455 C431.666664,4.4246183 431.023442,4.13555869 430.195312,4.14076705 C429.544268,4.14597541 429.018231,4.36211908 428.617187,4.78920455 C428.216144,5.21629002 428.015625,5.69024361 428.015625,6.21107955 Z M437.046875,6.78139205 L442.09375,6.78139205 C442.072917,6.06784681 441.859377,5.45066549 441.453125,4.92982955 C441.046873,4.40899361 440.427088,4.14857955 439.59375,4.14857955 C438.760413,4.14857955 438.13021,4.42461845 437.703125,4.97670455 C437.27604,5.53920736 437.057292,6.14076385 437.046875,6.78139205 Z M439.640625,11.922017 C438.489578,11.922017 437.546879,11.513167 436.8125,10.6954545 C436.078121,9.87774213 435.708333,8.79181549 435.703125,7.43764205 C435.703125,6.07826025 436.062496,4.99233361 436.78125,4.17982955 C437.500004,3.36732549 438.429682,2.96107955 439.570312,2.96107955 C440.705735,2.96107955 441.624996,3.3621172 442.328125,4.16420455 C443.031254,4.96629189 443.382812,6.05742681 443.382812,7.43764205 L443.382812,7.82045455 L437.015625,7.82045455 C437.026042,8.63295861 437.252602,9.32305588 437.695312,9.89076705 C438.138023,10.4584782 438.791662,10.7423295 439.65625,10.7423295 C440.520838,10.7423295 441.174477,10.4558741 441.617187,9.88295455 C441.815105,9.6329533 441.989583,9.36212267 442.140625,9.07045455 L443.195312,9.75795455 C442.877603,10.3777493 442.421878,10.8933692 441.828125,11.3048295 C441.234372,11.7162899 440.505213,11.922017 439.640625,11.922017 Z M445.539062,11.6798295 L445.539062,3.20326705 L446.789062,3.20326705 L446.789062,4.10951705 L446.820312,4.10951705 C446.992188,3.76055697 447.242186,3.49753877 447.570312,3.32045455 C447.898439,3.14337033 448.203124,3.05482955 448.484375,3.05482955 C448.765626,3.05482955 449.015624,3.09128752 449.234375,3.16420455 L449.3125,3.21889205 L449.078125,4.50795455 C448.916666,4.4246208 448.69271,4.38295455 448.40625,4.38295455 C447.869789,4.38295455 447.476564,4.56264025 447.226562,4.92201705 C446.976561,5.28139385 446.851562,5.85430478 446.851562,6.64076705 L446.851562,11.6798295 L445.539062,11.6798295 Z M122.898438,35.6798295 L121.023438,27.203267 L122.320312,27.203267 L123.679688,33.5860795 L123.710938,33.5860795 L125.953125,27.203267 L127.132812,27.203267 L129.34375,33.5860795 L129.375,33.5860795 L130.898438,27.203267 L132.179688,27.203267 L130.148438,35.6798295 L128.945312,35.6798295 L126.546875,28.750142 L126.515625,28.750142 L124.109375,35.6798295 L122.898438,35.6798295 Z M134.25,25.484517 L134.25,24.000142 L135.757812,24.000142 L135.757812,25.484517 L134.25,25.484517 Z M134.34375,35.6798295 L134.34375,27.203267 L135.65625,27.203267 L135.65625,35.6798295 L134.34375,35.6798295 Z M138.773437,33.218892 L138.773437,28.3673295 L137.585937,28.3673295 L137.585937,27.203267 L138.804687,27.203267 L138.804687,25.1173295 L140.054687,25.1173295 L140.054687,27.203267 L142.148437,27.203267 L142.148437,28.3673295 L140.070312,28.3673295 L140.070312,33.0548295 C140.070312,33.554832 140.140624,33.906391 140.28125,34.109517 C140.421876,34.3126431 140.697915,34.4142045 141.109375,34.4142045 L141.75,34.4142045 L141.75,35.6798295 L141.046875,35.6798295 C140.244788,35.6798295 139.666668,35.4767066 139.3125,35.0704545 C138.958332,34.6642025 138.778646,34.0470212 138.773437,33.218892 Z M144.226562,35.6798295 L144.226562,24.000142 L145.539062,24.000142 L145.539062,28.047017 L145.570312,28.047017 C145.804689,27.7293071 146.148435,27.4688931 146.601562,27.265767 C147.05469,27.062641 147.53906,26.9610795 148.054688,26.9610795 C148.960942,26.9610795 149.69531,27.2345143 150.257812,27.781392 C150.820315,28.3282698 151.098958,29.1147203 151.09375,30.140767 L151.09375,35.6798295 L149.78125,35.6798295 L149.78125,30.4923295 C149.78125,28.9350301 149.125007,28.156392 147.8125,28.156392 C147.119788,28.156392 146.56771,28.359515 146.15625,28.765767 C145.74479,29.1720191 145.539062,29.7006596 145.539062,30.3517045 L145.539062,35.6798295 L144.226562,35.6798295 Z M159.21875,34.000142 C159.651044,34.4793111 160.278642,34.718892 161.101562,34.718892 C161.924483,34.718892 162.546873,34.5079567 162.96875,34.0860795 C163.390627,33.6642024 163.601562,33.1459785 163.601562,32.531392 C163.601562,31.0157595 162.783862,30.2579545 161.148438,30.2579545 L160.351562,30.2579545 L160.351562,29.1017045 L160.6875,29.1017045 C161.145836,29.1017045 161.585935,29.036601 162.007812,28.906392 C162.815108,28.6563908 163.21875,28.1251461 163.21875,27.312642 C163.21875,26.7240974 163.031252,26.2657687 162.65625,25.937642 C162.281248,25.6095154 161.773441,25.4454545 161.132812,25.4454545 C160.486976,25.4454545 159.976564,25.6303485 159.601562,26.000142 C159.226561,26.3751439 158.997396,26.8985762 158.914062,27.5704545 L157.664062,27.343892 C157.757813,26.4063874 158.122393,25.6537907 158.757812,25.0860795 C159.393232,24.5235767 160.192704,24.2423295 161.15625,24.2423295 C162.119796,24.2423295 162.919268,24.5053478 163.554688,25.031392 C164.190107,25.5574363 164.502604,26.291804 164.492188,27.234517 C164.492188,27.8647285 164.315106,28.3777442 163.960938,28.7735795 C163.606769,29.1694149 163.203127,29.4298289 162.75,29.5548295 L162.75,29.5860795 C163.348961,29.7267053 163.854165,30.0522228 164.265625,30.562642 C164.677085,31.0730613 164.882812,31.7761792 164.882812,32.672017 C164.882812,33.5678549 164.533858,34.3334722 163.835938,34.968892 C163.138017,35.6043119 162.234381,35.922017 161.125,35.922017 C160.010411,35.922017 159.096358,35.6017078 158.382812,34.9610795 C157.669267,34.3204513 157.23698,33.333482 157.085938,32.000142 L158.382812,31.7423295 C158.513021,32.7683763 158.791665,33.520973 159.21875,34.000142 Z M169.820312,33.7579545 L169.820312,30.125142 L166.640625,30.125142 L166.640625,29.0704545 L169.820312,29.0704545 L169.820312,25.8360795 L170.976562,25.8360795 L170.976562,29.0704545 L174.15625,29.0704545 L174.15625,30.125142 L170.976562,30.125142 L170.976562,33.7579545 L169.820312,33.7579545 Z M180.835938,39.281392 L182.539062,34.781392 L179.351562,27.203267 L180.726562,27.203267 L183.125,33.0548295 L183.15625,33.0548295 L185.320312,27.203267 L186.664062,27.203267 L182.101562,39.281392 L180.835938,39.281392 Z M189.117188,30.781392 L194.164062,30.781392 C194.143229,30.0678468 193.92969,29.4506655 193.523438,28.9298295 C193.117185,28.4089936 192.4974,28.1485795 191.664062,28.1485795 C190.830725,28.1485795 190.200523,28.4246185 189.773438,28.9767045 C189.346352,29.5392074 189.127604,30.1407638 189.117188,30.781392 Z M191.710938,35.922017 C190.55989,35.922017 189.617191,35.513167 188.882812,34.6954545 C188.148434,33.8777421 187.778646,32.7918155 187.773438,31.437642 C187.773438,30.0782603 188.132809,28.9923336 188.851562,28.1798295 C189.570316,27.3673255 190.499994,26.9610795 191.640625,26.9610795 C192.776047,26.9610795 193.695309,27.3621172 194.398438,28.1642045 C195.101566,28.9662919 195.453125,30.0574268 195.453125,31.437642 L195.453125,31.8204545 L189.085938,31.8204545 C189.096354,32.6329586 189.322914,33.3230559 189.765625,33.890767 C190.208336,34.4584782 190.861975,34.7423295 191.726562,34.7423295 C192.59115,34.7423295 193.244789,34.4558741 193.6875,33.8829545 C193.885418,33.6329533 194.059895,33.3621227 194.210938,33.0704545 L195.265625,33.7579545 C194.947915,34.3777493 194.49219,34.8933692 193.898438,35.3048295 C193.304685,35.7162899 192.575525,35.922017 191.710938,35.922017 Z M198.328125,33.422017 C198.328125,34.3074381 198.888015,34.750142 200.007812,34.750142 C200.773441,34.750142 201.367185,34.5782688 201.789062,34.234517 C202.205731,33.885557 202.411458,33.461082 202.40625,32.9610795 L202.40625,30.8517045 L202.375,30.8517045 C202.229166,31.1589978 201.505215,31.4949319 200.203125,31.859517 C199.479163,32.0626431 198.984376,32.2787867 198.71875,32.5079545 C198.458332,32.7423307 198.328125,33.0470152 198.328125,33.422017 Z M202.539062,35.6798295 L202.539062,34.750142 L202.507812,34.750142 C202.346353,35.0261851 202.041669,35.2892033 201.59375,35.5392045 C201.145831,35.7892058 200.585941,35.9168087 199.914062,35.922017 C198.976558,35.922017 198.265627,35.6928527 197.78125,35.234517 C197.291664,34.7709731 197.046875,34.1902497 197.046875,33.4923295 C197.046875,32.7944094 197.263019,32.2475399 197.695312,31.8517045 C198.127606,31.4558692 198.763017,31.1511848 199.601562,30.937642 C200.903652,30.6095154 201.684895,30.3412889 201.945312,30.1329545 C202.200522,29.9246202 202.328125,29.6589978 202.328125,29.3360795 C202.328125,29.0079529 202.182293,28.7241016 201.890625,28.484517 C201.598957,28.2449325 201.153649,28.125142 200.554687,28.125142 C199.424474,28.125142 198.73698,28.6850323 198.492187,29.8048295 L197.304687,29.468892 C197.445313,28.7240967 197.791664,28.119936 198.34375,27.656392 C198.895836,27.1928481 199.64062,26.9610795 200.578125,26.9610795 C201.51563,26.9610795 202.268226,27.2032646 202.835937,27.687642 C203.408857,28.1720195 203.692708,28.9324285 203.6875,29.968892 L203.6875,35.6798295 L202.539062,35.6798295 Z M206.242187,35.6798295 L206.242187,27.203267 L207.492187,27.203267 L207.492187,28.109517 L207.523437,28.109517 C207.695313,27.760557 207.945311,27.4975388 208.273437,27.3204545 C208.601564,27.1433703 208.906249,27.0548295 209.1875,27.0548295 C209.468751,27.0548295 209.718749,27.0912875 209.9375,27.1642045 L210.015625,27.218892 L209.78125,28.5079545 C209.619791,28.4246208 209.395835,28.3829545 209.109375,28.3829545 C208.572914,28.3829545 208.179689,28.5626403 207.929687,28.922017 C207.679686,29.2813938 207.554687,29.8543048 207.554687,30.640767 L207.554687,35.6798295 L206.242187,35.6798295 Z M216.8125,33.422017 C216.8125,33.0053483 216.656252,32.6902473 216.34375,32.4767045 C216.031248,32.2631618 215.361984,32.0157685 214.335938,31.734517 C213.309891,31.4532656 212.583335,31.1303522 212.15625,30.765767 C211.729165,30.4063903 211.515625,29.9142077 211.515625,29.2892045 C211.515625,28.6642014 211.776039,28.119936 212.296875,27.656392 C212.812503,27.1928481 213.53385,26.9610795 214.460938,26.9610795 C215.388025,26.9610795 216.122393,27.1824315 216.664062,27.625142 C217.205732,28.0678526 217.570312,28.6563884 217.757812,29.390767 L216.617188,29.6954545 C216.289061,28.6173242 215.570318,28.078267 214.460938,28.078267 C213.908851,28.078267 213.481772,28.1954534 213.179688,28.4298295 C212.877603,28.6642057 212.729167,28.9506612 212.734375,29.2892045 C212.734375,29.6329563 212.877603,29.888162 213.164062,30.0548295 C213.450522,30.221497 214.127599,30.4558697 215.195312,30.7579545 C216.263026,31.0600394 217.002602,31.4115984 217.414062,31.812642 C217.825523,32.2136857 218.033854,32.7527428 218.039062,33.4298295 C218.049479,34.1069163 217.783857,34.6902438 217.242188,35.1798295 C216.700518,35.6694153 215.880214,35.9168087 214.78125,35.922017 C213.682286,35.922017 212.83594,35.6303533 212.242188,35.047017 C211.648435,34.4636808 211.304688,33.7136883 211.210938,32.797017 L212.445312,32.562642 C212.606772,34.0470245 213.390618,34.7866004 214.796875,34.781392 C215.468753,34.781392 215.971352,34.6589974 216.304688,34.4142045 C216.638023,34.1694117 216.807292,33.8386858 216.8125,33.422017 Z M230.132812,34.734517 C229.419267,35.5261877 228.507818,35.922017 227.398437,35.922017 C226.289057,35.922017 225.372399,35.5261877 224.648437,34.734517 C223.919267,33.9428464 223.554687,32.8491074 223.554687,31.453267 C223.554687,30.0574267 223.929684,28.9584794 224.679687,28.156392 C225.429691,27.3595131 226.338536,26.9610795 227.40625,26.9610795 C228.479172,26.9610795 229.380205,27.3621172 230.109375,28.1642045 C230.838545,28.9662919 231.203125,30.0626351 231.203125,31.453267 C231.203125,32.8491074 230.846358,33.9428464 230.132812,34.734517 Z M227.390625,34.734517 C228.119795,34.7397254 228.721352,34.4506658 229.195312,33.8673295 C229.669273,33.2839933 229.90625,32.4741056 229.90625,31.437642 C229.90625,30.4011785 229.671877,29.5912908 229.203125,29.0079545 C228.734373,28.4246183 228.132816,28.1355587 227.398437,28.140767 C226.65885,28.140767 226.049482,28.4272225 225.570312,29.000142 C225.091143,29.5782699 224.851562,30.393366 224.851562,31.4454545 C224.851562,32.4975431 225.091143,33.310035 225.570312,33.8829545 C226.05469,34.4506657 226.661455,34.734517 227.390625,34.734517 Z M233.664062,35.6798295 L233.664062,28.3673295 L232.476562,28.3673295 L232.476562,27.203267 L233.679688,27.203267 L233.679688,25.906392 C233.679688,25.1928468 233.83854,24.695456 234.15625,24.4142045 C234.47396,24.1329531 234.934893,23.9949337 235.539062,24.000142 L236.898438,24.000142 L236.898438,25.1642045 L235.773438,25.1642045 C235.445311,25.1642045 235.223959,25.2293081 235.109375,25.359517 C234.994791,25.489726 234.940104,25.7553484 234.945312,26.156392 L234.945312,27.203267 L237.039062,27.203267 L237.039062,28.3673295 L234.960938,28.3673295 L234.960938,35.6798295 L233.664062,35.6798295 Z M243.414062,30.781392 L248.460938,30.781392 C248.440104,30.0678468 248.226565,29.4506655 247.820312,28.9298295 C247.41406,28.4089936 246.794275,28.1485795 245.960938,28.1485795 C245.1276,28.1485795 244.497398,28.4246185 244.070312,28.9767045 C243.643227,29.5392074 243.424479,30.1407638 243.414062,30.781392 Z M246.007812,35.922017 C244.856765,35.922017 243.914066,35.513167 243.179688,34.6954545 C242.445309,33.8777421 242.075521,32.7918155 242.070312,31.437642 C242.070312,30.0782603 242.429684,28.9923336 243.148438,28.1798295 C243.867191,27.3673255 244.796869,26.9610795 245.9375,26.9610795 C247.072922,26.9610795 247.992184,27.3621172 248.695312,28.1642045 C249.398441,28.9662919 249.75,30.0574268 249.75,31.437642 L249.75,31.8204545 L243.382812,31.8204545 C243.393229,32.6329586 243.619789,33.3230559 244.0625,33.890767 C244.505211,34.4584782 245.15885,34.7423295 246.023438,34.7423295 C246.888025,34.7423295 247.541664,34.4558741 247.984375,33.8829545 C248.182293,33.6329533 248.35677,33.3621227 248.507812,33.0704545 L249.5625,33.7579545 C249.24479,34.3777493 248.789065,34.8933692 248.195312,35.3048295 C247.60156,35.7162899 246.8724,35.922017 246.007812,35.922017 Z M250.945312,35.6798295 L253.8125,31.328267 L251.125,27.203267 L252.5625,27.203267 L254.625,30.4610795 L254.65625,30.4610795 L256.726562,27.203267 L258.148438,27.203267 L255.476562,31.328267 L258.335938,35.6798295 L256.882812,35.6798295 L254.640625,32.1954545 L254.609375,32.1954545 L252.40625,35.6798295 L250.945312,35.6798295 Z M260.09375,39.281392 L260.09375,27.203267 L261.34375,27.203267 L261.34375,28.015767 L261.375,28.015767 C261.588543,27.7501407 261.908852,27.5079556 262.335937,27.2892045 C262.763023,27.0704535 263.252601,26.9610795 263.804687,26.9610795 C264.861984,26.9610795 265.742184,27.3699296 266.445312,28.187642 C267.148441,29.0053545 267.5,30.0912811 267.5,31.4454545 C267.5,32.799628 267.158858,33.8855546 266.476562,34.703267 C265.794267,35.5157711 264.903651,35.922017 263.804687,35.922017 C263.283852,35.922017 262.80469,35.810039 262.367187,35.5860795 C261.929685,35.3621201 261.619793,35.1225392 261.4375,34.8673295 L261.40625,34.8673295 L261.40625,39.281392 L260.09375,39.281392 Z M261.40625,30.2110795 L261.40625,32.8985795 C261.40625,33.3881653 261.614581,33.8178485 262.03125,34.187642 C262.447919,34.5574356 262.966143,34.7397254 263.585938,34.734517 C264.4349,34.7293087 265.083331,34.4402491 265.53125,33.8673295 C265.979169,33.29441 266.203125,32.4871264 266.203125,31.4454545 C266.203125,30.4037827 265.973961,29.5912908 265.515625,29.0079545 C265.057289,28.4246183 264.414067,28.1355587 263.585938,28.140767 C262.934893,28.1459754 262.408856,28.3621191 262.007812,28.7892045 C261.606769,29.21629 261.40625,29.6902436 261.40625,30.2110795 Z M270.4375,30.781392 L275.484375,30.781392 C275.463542,30.0678468 275.250002,29.4506655 274.84375,28.9298295 C274.437498,28.4089936 273.817712,28.1485795 272.984375,28.1485795 C272.151038,28.1485795 271.520835,28.4246185 271.09375,28.9767045 C270.666665,29.5392074 270.447917,30.1407638 270.4375,30.781392 Z M273.03125,35.922017 C271.880203,35.922017 270.937504,35.513167 270.203125,34.6954545 C269.468746,33.8777421 269.098958,32.7918155 269.09375,31.437642 C269.09375,30.0782603 269.453121,28.9923336 270.171875,28.1798295 C270.890629,27.3673255 271.820307,26.9610795 272.960938,26.9610795 C274.09636,26.9610795 275.015621,27.3621172 275.71875,28.1642045 C276.421879,28.9662919 276.773438,30.0574268 276.773438,31.437642 L276.773438,31.8204545 L270.40625,31.8204545 C270.416667,32.6329586 270.643227,33.3230559 271.085938,33.890767 C271.528648,34.4584782 272.182287,34.7423295 273.046875,34.7423295 C273.911463,34.7423295 274.565102,34.4558741 275.007812,33.8829545 C275.20573,33.6329533 275.380208,33.3621227 275.53125,33.0704545 L276.585938,33.7579545 C276.268228,34.3777493 275.812503,34.8933692 275.21875,35.3048295 C274.624997,35.7162899 273.895838,35.922017 273.03125,35.922017 Z M278.929687,35.6798295 L278.929687,27.203267 L280.179687,27.203267 L280.179687,28.109517 L280.210937,28.109517 C280.382813,27.760557 280.632811,27.4975388 280.960937,27.3204545 C281.289064,27.1433703 281.593749,27.0548295 281.875,27.0548295 C282.156251,27.0548295 282.406249,27.0912875 282.625,27.1642045 L282.703125,27.218892 L282.46875,28.5079545 C282.307291,28.4246208 282.083335,28.3829545 281.796875,28.3829545 C281.260414,28.3829545 280.867189,28.5626403 280.617187,28.922017 C280.367186,29.2813938 280.242187,29.8543048 280.242187,30.640767 L280.242187,35.6798295 L278.929687,35.6798295 Z M284.539062,25.484517 L284.539062,24.000142 L286.046875,24.000142 L286.046875,25.484517 L284.539062,25.484517 Z M284.632812,35.6798295 L284.632812,27.203267 L285.945312,27.203267 L285.945312,35.6798295 L284.632812,35.6798295 Z M289.539062,30.781392 L294.585938,30.781392 C294.565104,30.0678468 294.351565,29.4506655 293.945312,28.9298295 C293.53906,28.4089936 292.919275,28.1485795 292.085938,28.1485795 C291.2526,28.1485795 290.622398,28.4246185 290.195312,28.9767045 C289.768227,29.5392074 289.549479,30.1407638 289.539062,30.781392 Z M292.132812,35.922017 C290.981765,35.922017 290.039066,35.513167 289.304688,34.6954545 C288.570309,33.8777421 288.200521,32.7918155 288.195312,31.437642 C288.195312,30.0782603 288.554684,28.9923336 289.273438,28.1798295 C289.992191,27.3673255 290.921869,26.9610795 292.0625,26.9610795 C293.197922,26.9610795 294.117184,27.3621172 294.820312,28.1642045 C295.523441,28.9662919 295.875,30.0574268 295.875,31.437642 L295.875,31.8204545 L289.507812,31.8204545 C289.518229,32.6329586 289.744789,33.3230559 290.1875,33.890767 C290.630211,34.4584782 291.28385,34.7423295 292.148438,34.7423295 C293.013025,34.7423295 293.666664,34.4558741 294.109375,33.8829545 C294.307293,33.6329533 294.48177,33.3621227 294.632812,33.0704545 L295.6875,33.7579545 C295.36979,34.3777493 294.914065,34.8933692 294.320312,35.3048295 C293.72656,35.7162899 292.9974,35.922017 292.132812,35.922017 Z M298.03125,35.6798295 L298.03125,27.203267 L299.3125,27.203267 L299.3125,28.015767 L299.34375,28.015767 C299.578126,27.7084738 299.91406,27.4558722 300.351562,27.2579545 C300.789065,27.0600369 301.247393,26.9610795 301.726562,26.9610795 C302.643234,26.9610795 303.38281,27.2423267 303.945312,27.8048295 C304.507815,28.3673324 304.786458,29.1355538 304.78125,30.109517 L304.78125,35.6798295 L303.484375,35.6798295 L303.484375,30.531392 C303.484375,28.9532592 302.835944,28.1616004 301.539062,28.156392 C300.877601,28.156392 300.346356,28.3438902 299.945312,28.718892 C299.544269,29.0938939 299.34375,29.6121179 299.34375,30.2735795 L299.34375,35.6798295 L298.03125,35.6798295 Z M310.71875,35.922017 C309.578119,35.922017 308.651045,35.5235835 307.9375,34.7267045 C307.218746,33.9298256 306.859375,32.8386906 306.859375,31.453267 C306.859375,30.0678435 307.229163,28.9715003 307.96875,28.1642045 C308.708337,27.3569088 309.624995,26.9558712 310.71875,26.9610795 C311.625005,26.9610795 312.39583,27.247535 313.03125,27.8204545 C313.66667,28.3933741 314.052083,29.1407624 314.1875,30.062642 L312.960938,30.3204545 C312.830729,29.6902431 312.583335,29.1694149 312.21875,28.7579545 C311.854165,28.3464942 311.32292,28.140767 310.625,28.140767 C309.92708,28.140767 309.338544,28.4324308 308.859375,29.015767 C308.390623,29.5938949 308.15625,30.3985744 308.15625,31.4298295 C308.15625,32.4610847 308.385414,33.2709724 308.84375,33.859517 C309.302086,34.4480617 309.932288,34.7397254 310.734375,34.734517 C311.364586,34.734517 311.877602,34.5079568 312.273438,34.0548295 C312.669273,33.6017023 312.908854,33.060041 312.992188,32.4298295 L314.257812,32.687642 C314.117187,33.6668136 313.726566,34.4506599 313.085938,35.0392045 C312.445309,35.6277492 311.656255,35.922017 310.71875,35.922017 Z M317.109375,30.781392 L322.15625,30.781392 C322.135417,30.0678468 321.921877,29.4506655 321.515625,28.9298295 C321.109373,28.4089936 320.489587,28.1485795 319.65625,28.1485795 C318.822913,28.1485795 318.19271,28.4246185 317.765625,28.9767045 C317.33854,29.5392074 317.119792,30.1407638 317.109375,30.781392 Z M319.703125,35.922017 C318.552078,35.922017 317.609379,35.513167 316.875,34.6954545 C316.140621,33.8777421 315.770833,32.7918155 315.765625,31.437642 C315.765625,30.0782603 316.124996,28.9923336 316.84375,28.1798295 C317.562504,27.3673255 318.492182,26.9610795 319.632812,26.9610795 C320.768235,26.9610795 321.687496,27.3621172 322.390625,28.1642045 C323.093754,28.9662919 323.445312,30.0574268 323.445312,31.437642 L323.445312,31.8204545 L317.078125,31.8204545 C317.088542,32.6329586 317.315102,33.3230559 317.757812,33.890767 C318.200523,34.4584782 318.854162,34.7423295 319.71875,34.7423295 C320.583338,34.7423295 321.236977,34.4558741 321.679688,33.8829545 C321.877605,33.6329533 322.052083,33.3621227 322.203125,33.0704545 L323.257812,33.7579545 C322.940103,34.3777493 322.484378,34.8933692 321.890625,35.3048295 C321.296872,35.7162899 320.567713,35.922017 319.703125,35.922017 Z M325.765625,35.6798295 L325.765625,33.7892045 L327.648437,33.7892045 L327.648437,35.6798295 L325.765625,35.6798295 Z" id="A-Seoulbased-junior"></path>
        </g>
    </g>
</svg>