<?xml version="1.0" encoding="UTF-8"?>
<svg width="88px" height="22px" viewBox="0 0 88 22" version="1.1" xmlns="http://www.w3.org/2000/svg" xmlns:xlink="http://www.w3.org/1999/xlink">
    <!-- Generator: Sketch 48.2 (47327) - http://www.bohemiancoding.com/sketch -->
    <title>logo-woohyeon</title>
    <desc>Created with Sketch.</desc>
    <defs></defs>
    <g id="Page-2" stroke="none" stroke-width="1" fill="none" fill-rule="evenodd">
        <g id="logo-woohyeon" fill="#231F20">
            <g id="Page-1" transform="translate(0.000000, 1.000000)">
                <path d="M3.20726154,10.0495846 C3.20726154,11.7757385 4.54756923,12.8486615 6.25172308,12.8486615 C8.01849231,12.8486615 9.31649231,11.7757385 9.31649231,10.0495846 C9.31649231,8.38604615 8.01849231,7.33004615 6.25172308,7.33004615 C4.56787692,7.33004615 3.20726154,8.38604615 3.20726154,10.0495846 M6.25172308,15.6917385 C2.96356923,15.6917385 0.000338461538,13.4595846 0.000338461538,10.0495846 C0.000338461538,6.70050769 2.96356923,4.50896923 6.25172308,4.50896923 C9.51956923,4.50896923 12.4828,6.70050769 12.4828,10.0495846 C12.4828,13.4595846 9.76326154,15.6917385 6.25172308,15.6917385 Z M24.4545231,19.2019231 L24.4545231,11.4697692 L17.3705231,11.4697692 L17.3705231,8.83146154 L34.9468308,8.83146154 L34.9468308,11.4697692 L27.8239077,11.4697692 L27.8239077,19.2019231 L24.4545231,19.2019231 Z M44.4640308,4.8542 L44.4640308,2.17358462 L50.7154154,2.17358462 L50.7154154,4.8542 L44.4640308,4.8542 Z M47.6709538,16.7680462 C44.6264923,16.7680462 42.2115692,15.2652769 42.2115692,12.9095846 C42.2115692,10.4540462 44.6264923,8.99358462 47.6709538,8.99358462 C50.7154154,8.99358462 53.1303385,10.4540462 53.1303385,12.9095846 C53.1303385,15.2652769 50.6951077,16.7680462 47.6709538,16.7680462 Z M47.6709538,11.6725077 C46.4728,11.6725077 45.6824923,12.1192769 45.6824923,12.9095846 C45.6824923,13.6812769 46.4728,14.1483538 47.6709538,14.1483538 C48.8894154,14.1483538 49.6391077,13.6812769 49.6391077,12.9095846 C49.6391077,12.1192769 48.8894154,11.6725077 47.6709538,11.6725077 Z M41.2368,8.54850769 L41.2368,5.6242 L54.0238769,5.6242 L54.0238769,8.54850769 L41.2368,8.54850769 Z M60.8250923,4.93475385 L64.7021692,4.93475385 L64.7021692,0.692138462 L68.0901692,0.692138462 L68.0901692,20.1350615 L64.7021692,20.1350615 L64.7021692,13.3979846 L60.8250923,13.3979846 L60.8250923,10.5159846 L64.7021692,10.5159846 L64.7021692,7.81675385 L60.8250923,7.81675385 L60.8250923,4.93475385 Z M78.4349077,4.7926 L78.4349077,12.4029077 L87.8509077,12.4029077 L87.8509077,15.4067538 L75.3075231,15.4067538 L75.3075231,4.7926 L78.4349077,4.7926 Z" id="Combined-Shape"></path>
            </g>
        </g>
    </g>
</svg>