<?xml version="1.0" encoding="UTF-8"?>
<svg width="214px" height="18px" viewBox="0 0 214 18" version="1.1" xmlns="http://www.w3.org/2000/svg" xmlns:xlink="http://www.w3.org/1999/xlink">
    <!-- Generator: Sketch 48.2 (47327) - http://www.bohemiancoding.com/sketch -->
    <title>text-works</title>
    <desc>Created with Sketch.</desc>
    <defs></defs>
    <g id="Page-2" stroke="none" stroke-width="1" fill="none" fill-rule="evenodd">
        <g id="text-works" fill="#1B2733">
            <path d="M16.872,5.328 L12.648,5.328 C12.36,4.368 12.024,3.888 11.304,3.504 C10.56,3.12 9.672,2.952 8.496,2.952 C6.12,2.952 4.704,3.672 4.704,4.872 C4.704,5.784 5.328,6.192 7.032,6.36 L10.92,6.768 C12.984,6.96 14.088,7.224 15.168,7.776 C16.632,8.496 17.544,9.984 17.544,11.664 C17.544,13.536 16.44,15.216 14.64,16.08 C13.104,16.824 11.304,17.136 8.712,17.136 C5.448,17.136 3.144,16.512 1.68,15.24 C0.552,14.28 0.144,13.224 0,11.112 L4.2,11.112 C4.32,12.168 4.608,12.72 5.256,13.224 C6.144,13.896 7.248,14.184 8.904,14.184 C11.52,14.184 13.032,13.416 13.032,12.096 C13.032,11.04 12.24,10.512 10.368,10.32 L5.856,9.864 C2.352,9.504 0.456,7.92 0.456,5.376 C0.456,2.04 3.528,0 8.52,0 C11.04,0 13.32,0.576 14.76,1.56 C16.008,2.424 16.56,3.432 16.872,5.328 Z M34.008,11.4 L23.448,11.4 C23.472,13.248 24.792,14.4 26.832,14.4 C28.296,14.4 29.208,13.896 29.664,12.816 L33.864,12.816 C33.48,13.896 32.976,14.592 32.016,15.384 C30.648,16.512 29.04,17.04 26.952,17.04 C24.456,17.04 22.488,16.368 21.264,15.12 C20.184,14.016 19.608,12.48 19.608,10.728 C19.608,6.768 22.392,4.248 26.808,4.248 C29.784,4.248 32.016,5.352 33.096,7.392 C33.72,8.544 33.96,9.672 34.008,11.4 Z M23.568,9.048 L29.952,9.048 C29.568,7.416 28.512,6.6 26.76,6.6 C25.008,6.6 23.928,7.416 23.568,9.048 Z M40.488,0.552 L40.488,16.56 L36.696,16.56 L36.696,0.552 L40.488,0.552 Z M57.576,11.4 L47.016,11.4 C47.04,13.248 48.36,14.4 50.4,14.4 C51.864,14.4 52.776,13.896 53.232,12.816 L57.432,12.816 C57.048,13.896 56.544,14.592 55.584,15.384 C54.216,16.512 52.608,17.04 50.52,17.04 C48.024,17.04 46.056,16.368 44.832,15.12 C43.752,14.016 43.176,12.48 43.176,10.728 C43.176,6.768 45.96,4.248 50.376,4.248 C53.352,4.248 55.584,5.352 56.664,7.392 C57.288,8.544 57.528,9.672 57.576,11.4 Z M47.136,9.048 L53.52,9.048 C53.136,7.416 52.08,6.6 50.328,6.6 C48.576,6.6 47.496,7.416 47.136,9.048 Z M70.152,11.808 L74.184,11.808 C73.56,15.12 70.872,17.04 66.888,17.04 C64.368,17.04 62.304,16.248 61.104,14.784 C60.168,13.68 59.688,12.288 59.688,10.776 C59.688,6.888 62.688,4.248 67.104,4.248 C69.384,4.248 71.328,4.992 72.504,6.288 C73.2,7.08 73.608,7.896 73.896,9.192 L70.08,9.192 C69.696,7.68 68.688,6.888 67.056,6.888 C64.896,6.888 63.456,8.376 63.456,10.584 C63.456,12.816 64.896,14.4 66.96,14.4 C68.616,14.4 69.84,13.416 70.152,11.808 Z M81.048,1.368 L81.048,4.728 L83.832,4.728 L83.832,7.44 L81.048,7.44 L81.048,12.384 C81.048,13.416 81.408,13.704 82.656,13.68 L83.736,13.68 L83.736,16.56 L81.384,16.56 C77.976,16.56 77.208,15.768 77.256,12.336 L77.256,7.44 L75.552,7.44 L75.552,4.728 L77.256,4.728 L77.256,1.368 L81.048,1.368 Z M99.648,11.4 L89.088,11.4 C89.112,13.248 90.432,14.4 92.472,14.4 C93.936,14.4 94.848,13.896 95.304,12.816 L99.504,12.816 C99.12,13.896 98.616,14.592 97.656,15.384 C96.288,16.512 94.68,17.04 92.592,17.04 C90.096,17.04 88.128,16.368 86.904,15.12 C85.824,14.016 85.248,12.48 85.248,10.728 C85.248,6.768 88.032,4.248 92.448,4.248 C95.424,4.248 97.656,5.352 98.736,7.392 C99.36,8.544 99.6,9.672 99.648,11.4 Z M89.208,9.048 L95.592,9.048 C95.208,7.416 94.152,6.6 92.4,6.6 C90.648,6.6 89.568,7.416 89.208,9.048 Z M115.944,0.552 L115.944,16.56 L112.152,16.56 L112.152,15.432 C110.952,16.488 109.68,16.968 108.096,16.968 C104.472,16.968 101.76,14.256 101.76,10.656 C101.76,7.032 104.472,4.32 108.096,4.32 C109.68,4.32 110.976,4.8 112.152,5.856 L112.152,0.552 L115.944,0.552 Z M109.008,7.032 C107.064,7.032 105.528,8.616 105.528,10.632 C105.528,12.648 107.064,14.256 108.984,14.256 C110.88,14.256 112.44,12.648 112.44,10.704 C112.44,8.64 110.928,7.032 109.008,7.032 Z M142.44,16.56 L138.696,16.56 L137.088,12.072 C136.728,11.088 136.536,10.464 136.44,10.248 C136.344,9.888 136.272,9.696 136.128,9.072 C135.864,10.2 135.768,10.488 135.216,12.072 L133.632,16.56 L129.864,16.56 L124.872,4.728 L129.048,4.728 L130.728,9.072 C131.04,9.912 131.448,11.064 131.784,12.072 C132.024,11.088 132.216,10.416 132.672,9.072 L134.184,4.728 L138.12,4.728 L139.752,9.072 C140.088,9.984 140.4,10.92 140.76,12.072 C141.048,11.04 141.408,9.864 141.696,9.072 L143.304,4.728 L147.432,4.728 L142.44,16.56 Z M156.264,4.248 C158.52,4.248 160.512,4.92 161.904,6.12 C163.2,7.272 163.848,8.784 163.848,10.752 C163.848,14.472 160.728,17.04 156.216,17.04 C151.632,17.04 148.584,14.496 148.584,10.632 C148.584,6.792 151.632,4.248 156.264,4.248 Z M156.24,7.056 C154.128,7.056 152.664,8.52 152.664,10.632 C152.664,12.744 154.128,14.232 156.216,14.232 C158.256,14.232 159.768,12.744 159.768,10.704 C159.768,8.544 158.328,7.056 156.24,7.056 Z M166.536,4.728 L170.328,4.728 L170.328,6.456 C171.384,5.088 172.656,4.44 174.336,4.44 C174.552,4.44 174.72,4.464 175.104,4.488 L175.104,7.68 C174.576,7.536 174.288,7.512 173.88,7.512 C171.696,7.512 170.328,8.856 170.328,11.016 L170.328,16.56 L166.536,16.56 L166.536,4.728 Z M185.352,9.336 L191.928,16.56 L186.864,16.56 L182.568,11.568 L181.056,12.744 L181.056,16.56 L177.264,16.56 L177.264,0.552 L181.056,0.552 L181.056,8.928 L186.144,4.728 L191.16,4.728 L185.352,9.336 Z M206.448,8.232 L202.584,8.232 C202.488,7.056 201.72,6.6 199.8,6.6 C197.976,6.6 197.088,7.008 197.088,7.848 C197.088,8.496 197.568,8.76 198.912,8.832 C201.216,8.976 202.728,9.12 203.616,9.336 C205.752,9.84 206.808,10.944 206.808,12.696 C206.808,15.48 204.36,17.04 199.992,17.04 C195.504,17.04 193.032,15.6 192.792,12.84 L196.776,12.84 C196.896,14.112 197.88,14.688 199.896,14.688 C201.816,14.688 202.968,14.184 202.968,13.344 C202.968,12.576 202.344,12.336 200.064,12.168 C197.448,12 196.872,11.928 195.816,11.616 C194.16,11.16 193.248,10.008 193.248,8.424 C193.248,5.784 195.648,4.248 199.8,4.248 C202.392,4.248 204.24,4.824 205.44,5.976 C206.016,6.552 206.304,7.2 206.448,8.232 Z M209.016,4.728 L213.144,4.728 L213.144,8.448 L209.016,8.448 L209.016,4.728 Z M209.016,12.84 L213.144,12.84 L213.144,16.56 L209.016,16.56 L209.016,12.84 Z" id="Selected-works:"></path>
        </g>
    </g>
</svg>