<?xml version="1.0" encoding="UTF-8"?>
<svg width="261px" height="164px" viewBox="0 0 261 164" version="1.1" xmlns="http://www.w3.org/2000/svg" xmlns:xlink="http://www.w3.org/1999/xlink">
    <!-- Generator: Sketch 48.2 (47327) - http://www.bohemiancoding.com/sketch -->
    <title>title-cover</title>
    <desc>Created with Sketch.</desc>
    <defs></defs>
    <g id="Page-2" stroke="none" stroke-width="1" fill="none" fill-rule="evenodd">
        <g id="title-cover" fill="#1B2733">
            <path d="M17.584,40.152 L17.584,39.368 C22.232,39.2 23.408,38.304 23.408,36.176 L23.408,5.096 C23.408,2.968 22.232,2.016 17.584,1.848 L17.584,1.12 L36.344,1.12 C48.552,1.12 51.744,5.88 51.744,10.472 C51.744,14.616 48.496,18.592 39.872,19.432 L39.872,19.6 C48.832,19.936 53.2,23.8 53.2,29.176 C53.2,34.776 49.336,40.152 36.848,40.152 L17.584,40.152 Z M31.584,19.096 L35.616,19.096 C41.776,19.096 43.4,15.848 43.4,10.64 C43.4,5.824 42.056,2.128 35.448,2.128 L31.584,2.128 L31.584,19.096 Z M31.584,39.088 L36.288,39.088 C43.456,39.088 44.744,35.392 44.744,29.176 C44.744,24.248 42.616,20.104 35.728,20.104 L31.584,20.104 L31.584,39.088 Z M67.536,40.6 C62.832,40.6 59.92,37.856 59.92,32.424 L59.92,17.808 C59.92,16.128 59.248,15.12 56.056,15.064 L56.056,14.392 L67.368,14.168 L67.368,31.752 C67.368,35.224 68.6,37.128 71.456,37.128 C73.472,37.128 74.984,35.896 76.44,33.6 L76.44,17.808 C76.44,16.128 75.6,15.176 72.52,15.064 L72.52,14.392 L83.888,14.168 L83.888,37.352 C83.888,38.92 84.616,39.368 87.752,39.48 L87.752,40.152 L76.552,40.152 L76.552,34.832 C74.2,38.584 71.12,40.6 67.536,40.6 Z M97.048,9.856 C94.416,9.856 92.624,8.288 92.624,5.544 C92.624,2.856 94.416,1.008 97.048,1.008 C99.68,1.008 101.416,2.744 101.416,5.376 C101.416,8.12 99.68,9.856 97.048,9.856 Z M89.432,40.152 L89.432,39.48 C92.624,39.424 93.464,38.976 93.464,37.408 L93.464,18.144 C93.464,16.464 92.624,15.4 89.432,15.344 L89.432,14.672 L100.912,14.168 L100.912,37.408 C100.912,38.976 101.528,39.424 104.832,39.48 L104.832,40.152 L89.432,40.152 Z M106.568,40.152 L106.568,39.48 C109.704,39.424 110.376,38.976 110.376,37.408 L110.376,3.976 C110.376,2.184 109.816,1.288 106.176,1.232 L106.176,0.56 L117.824,0 L117.824,37.408 C117.824,38.976 118.44,39.424 121.688,39.48 L121.688,40.152 L106.568,40.152 Z M135.296,40.6 C128.24,40.6 124.096,35.168 124.096,27.664 C124.096,20.216 128.912,13.832 137.144,13.832 C139.552,13.832 141.008,14.224 142.632,14.896 L142.632,3.976 C142.632,2.184 142.072,1.288 138.432,1.232 L138.432,0.56 L150.08,0 L150.08,37.072 C150.08,38.584 150.752,39.648 153.944,39.648 L153.944,40.152 L142.744,40.376 L142.744,37.128 C140.896,39.2 138.544,40.6 135.296,40.6 Z M138.6,37.856 C140.504,37.856 141.512,37.184 142.632,36.176 L142.632,17.584 C141.624,16.072 140.056,14.896 137.76,14.896 C134.176,14.896 131.992,19.824 131.992,27.048 C131.992,32.928 134.232,37.856 138.6,37.856 Z M163.016,9.856 C160.384,9.856 158.592,8.288 158.592,5.544 C158.592,2.856 160.384,1.008 163.016,1.008 C165.648,1.008 167.384,2.744 167.384,5.376 C167.384,8.12 165.648,9.856 163.016,9.856 Z M155.4,40.152 L155.4,39.48 C158.592,39.424 159.432,38.976 159.432,37.408 L159.432,18.144 C159.432,16.464 158.592,15.4 155.4,15.344 L155.4,14.672 L166.88,14.168 L166.88,37.408 C166.88,38.976 167.496,39.424 170.8,39.48 L170.8,40.152 L155.4,40.152 Z M172.648,40.152 L172.648,39.48 C175.896,39.424 176.568,38.976 176.568,37.408 L176.568,18.144 C176.568,16.464 175.896,15.4 172.648,15.344 L172.648,14.672 L183.904,14.168 L183.904,19.768 C186.312,16.184 189.952,14 193.592,14 C198.296,14 200.592,16.8 200.592,22.064 L200.592,37.408 C200.592,38.976 201.208,39.424 204.456,39.48 L204.456,40.152 L190.064,40.152 L190.064,39.48 C192.304,39.424 193.144,38.976 193.144,37.408 L193.144,22.568 C193.144,19.208 192.024,17.304 189.168,17.304 C187.096,17.304 185.472,18.76 184.016,21 L184.016,37.408 C184.016,38.976 184.8,39.424 186.984,39.48 L186.984,40.152 L172.648,40.152 Z M218.736,50.4 C223.496,50.4 226.968,48.216 226.968,44.688 C226.968,42.616 225.4,41.216 220.416,41.216 L213.304,41.216 C211.344,42.224 210.392,43.456 210.392,45.192 C210.392,48.608 213.08,50.4 218.736,50.4 Z M218.456,30.296 C221.368,30.296 222.264,27.944 222.264,22.624 C222.264,17.808 221.032,14.952 217.952,14.952 C214.984,14.952 214.144,17.248 214.144,22.624 C214.144,27.944 215.432,30.296 218.456,30.296 Z M218.232,14 C220.024,14 221.872,14.28 223.44,14.896 C224.672,12.096 226.744,9.744 229.6,9.744 C231.84,9.744 233.016,11.088 233.016,12.88 C233.016,14.336 232.064,15.624 230.328,15.624 C228.928,15.624 227.472,14.392 227.472,12.432 C226.296,12.824 225.12,14 224.392,15.288 C227.416,16.632 229.488,19.04 229.488,22.512 C229.488,27.944 224.448,31.304 218.232,31.304 C216.944,31.304 215.768,31.192 214.592,30.912 C212.352,31.64 211.456,32.368 211.456,33.544 C211.456,34.664 212.632,35.336 216.44,35.336 L222.04,35.336 C228.424,35.336 231.728,37.464 231.728,42.112 C231.728,46.984 226.24,51.352 217.28,51.352 C210.336,51.352 205.464,49.168 205.464,45.92 C205.464,43.512 207.424,41.776 211.792,41.16 L211.792,40.992 C208.376,39.928 207.088,37.856 207.088,35.728 C207.088,33.88 209.104,31.584 213.024,30.52 C209.384,29.288 206.92,26.768 206.92,22.736 C206.92,17.36 211.904,14 218.232,14 Z M233.352,49.056 L233.016,48.384 C237.44,46.144 239.512,42.56 239.736,40.432 L239.512,40.32 C239.008,40.6 238.448,40.712 237.888,40.712 C235.928,40.712 234.08,39.2 234.08,36.68 C234.08,34.384 235.76,32.312 238.28,32.312 C241.304,32.312 243.264,34.608 243.264,37.912 C243.264,42.728 239.624,47.096 233.352,49.056 Z M0,96.152 L0,95.368 C4.648,95.2 5.824,94.304 5.824,92.176 L5.824,61.096 C5.824,58.968 4.648,58.016 0,57.848 L0,57.12 L18.312,57.12 C32.536,57.12 39.592,64.96 39.592,75.936 C39.592,86.408 33.712,96.152 19.208,96.152 L0,96.152 Z M14,95.088 L17.472,95.088 C27.216,95.088 30.688,90.832 30.688,76.496 C30.688,62.104 26.208,58.128 17.36,58.128 L14,58.128 L14,95.088 Z M56.84,96.6 C48.944,96.6 43.568,91.728 43.568,83.552 C43.568,75.096 49.56,69.832 56.784,69.832 C64.624,69.832 68.712,75.04 68.32,82.264 L51.464,82.264 L51.464,83.384 C51.464,90.216 54.376,94.248 59.92,94.248 C63.336,94.248 65.52,92.568 67.648,89.656 L68.264,90.048 C65.8,93.968 62.384,96.6 56.84,96.6 Z M56.448,70.896 C53.312,70.896 51.744,74.704 51.52,81.256 L60.704,81.256 C61.376,74.872 59.976,70.896 56.448,70.896 Z M71.848,96.6 L71.848,86.968 L72.632,86.968 C76.272,92.904 79.016,95.536 82.992,95.536 C85.904,95.536 87.472,93.8 87.472,91.504 C87.472,88.928 85.96,87.752 80.192,86.072 C74.312,84.392 71.848,82.6 71.848,78.4 C71.848,73.248 75.824,69.832 82.04,69.832 C84.896,69.832 87.36,70.616 89.04,71.736 L90.608,69.832 L91.28,69.832 L91.28,78.456 L90.496,78.456 C87.248,73.304 85.232,70.896 81.704,70.896 C79.184,70.896 77.504,72.52 77.504,75.096 C77.504,77.392 79.912,78.512 83.72,79.52 C89.712,80.976 92.848,83.048 92.848,87.696 C92.848,92.736 88.816,96.6 82.432,96.6 C80.36,96.6 75.824,95.48 74.256,94.528 L72.52,96.6 L71.848,96.6 Z M103.208,65.856 C100.576,65.856 98.784,64.288 98.784,61.544 C98.784,58.856 100.576,57.008 103.208,57.008 C105.84,57.008 107.576,58.744 107.576,61.376 C107.576,64.12 105.84,65.856 103.208,65.856 Z M95.592,96.152 L95.592,95.48 C98.784,95.424 99.624,94.976 99.624,93.408 L99.624,74.144 C99.624,72.464 98.784,71.4 95.592,71.344 L95.592,70.672 L107.072,70.168 L107.072,93.408 C107.072,94.976 107.688,95.424 110.992,95.48 L110.992,96.152 L95.592,96.152 Z M125.776,106.4 C130.536,106.4 134.008,104.216 134.008,100.688 C134.008,98.616 132.44,97.216 127.456,97.216 L120.344,97.216 C118.384,98.224 117.432,99.456 117.432,101.192 C117.432,104.608 120.12,106.4 125.776,106.4 Z M125.496,86.296 C128.408,86.296 129.304,83.944 129.304,78.624 C129.304,73.808 128.072,70.952 124.992,70.952 C122.024,70.952 121.184,73.248 121.184,78.624 C121.184,83.944 122.472,86.296 125.496,86.296 Z M125.272,70 C127.064,70 128.912,70.28 130.48,70.896 C131.712,68.096 133.784,65.744 136.64,65.744 C138.88,65.744 140.056,67.088 140.056,68.88 C140.056,70.336 139.104,71.624 137.368,71.624 C135.968,71.624 134.512,70.392 134.512,68.432 C133.336,68.824 132.16,70 131.432,71.288 C134.456,72.632 136.528,75.04 136.528,78.512 C136.528,83.944 131.488,87.304 125.272,87.304 C123.984,87.304 122.808,87.192 121.632,86.912 C119.392,87.64 118.496,88.368 118.496,89.544 C118.496,90.664 119.672,91.336 123.48,91.336 L129.08,91.336 C135.464,91.336 138.768,93.464 138.768,98.112 C138.768,102.984 133.28,107.352 124.32,107.352 C117.376,107.352 112.504,105.168 112.504,101.92 C112.504,99.512 114.464,97.776 118.832,97.16 L118.832,96.992 C115.416,95.928 114.128,93.856 114.128,91.728 C114.128,89.88 116.144,87.584 120.064,86.52 C116.424,85.288 113.96,82.768 113.96,78.736 C113.96,73.36 118.944,70 125.272,70 Z M139.664,96.152 L139.664,95.48 C142.912,95.424 143.584,94.976 143.584,93.408 L143.584,74.144 C143.584,72.464 142.912,71.4 139.664,71.344 L139.664,70.672 L150.92,70.168 L150.92,75.768 C153.328,72.184 156.968,70 160.608,70 C165.312,70 167.608,72.8 167.608,78.064 L167.608,93.408 C167.608,94.976 168.224,95.424 171.472,95.48 L171.472,96.152 L157.08,96.152 L157.08,95.48 C159.32,95.424 160.16,94.976 160.16,93.408 L160.16,78.568 C160.16,75.208 159.04,73.304 156.184,73.304 C154.112,73.304 152.488,74.76 151.032,77 L151.032,93.408 C151.032,94.976 151.816,95.424 154,95.48 L154,96.152 L139.664,96.152 Z M180.6,65.856 C177.968,65.856 176.176,64.288 176.176,61.544 C176.176,58.856 177.968,57.008 180.6,57.008 C183.232,57.008 184.968,58.744 184.968,61.376 C184.968,64.12 183.232,65.856 180.6,65.856 Z M172.984,96.152 L172.984,95.48 C176.176,95.424 177.016,94.976 177.016,93.408 L177.016,74.144 C177.016,72.464 176.176,71.4 172.984,71.344 L172.984,70.672 L184.464,70.168 L184.464,93.408 C184.464,94.976 185.08,95.424 188.384,95.48 L188.384,96.152 L172.984,96.152 Z M190.232,96.152 L190.232,95.48 C193.48,95.424 194.152,94.976 194.152,93.408 L194.152,74.144 C194.152,72.464 193.48,71.4 190.232,71.344 L190.232,70.672 L201.488,70.168 L201.488,75.768 C203.896,72.184 207.536,70 211.176,70 C215.88,70 218.176,72.8 218.176,78.064 L218.176,93.408 C218.176,94.976 218.792,95.424 222.04,95.48 L222.04,96.152 L207.648,96.152 L207.648,95.48 C209.888,95.424 210.728,94.976 210.728,93.408 L210.728,78.568 C210.728,75.208 209.608,73.304 206.752,73.304 C204.68,73.304 203.056,74.76 201.6,77 L201.6,93.408 C201.6,94.976 202.384,95.424 204.568,95.48 L204.568,96.152 L190.232,96.152 Z M236.32,106.4 C241.08,106.4 244.552,104.216 244.552,100.688 C244.552,98.616 242.984,97.216 238,97.216 L230.888,97.216 C228.928,98.224 227.976,99.456 227.976,101.192 C227.976,104.608 230.664,106.4 236.32,106.4 Z M236.04,86.296 C238.952,86.296 239.848,83.944 239.848,78.624 C239.848,73.808 238.616,70.952 235.536,70.952 C232.568,70.952 231.728,73.248 231.728,78.624 C231.728,83.944 233.016,86.296 236.04,86.296 Z M235.816,70 C237.608,70 239.456,70.28 241.024,70.896 C242.256,68.096 244.328,65.744 247.184,65.744 C249.424,65.744 250.6,67.088 250.6,68.88 C250.6,70.336 249.648,71.624 247.912,71.624 C246.512,71.624 245.056,70.392 245.056,68.432 C243.88,68.824 242.704,70 241.976,71.288 C245,72.632 247.072,75.04 247.072,78.512 C247.072,83.944 242.032,87.304 235.816,87.304 C234.528,87.304 233.352,87.192 232.176,86.912 C229.936,87.64 229.04,88.368 229.04,89.544 C229.04,90.664 230.216,91.336 234.024,91.336 L239.624,91.336 C246.008,91.336 249.312,93.464 249.312,98.112 C249.312,102.984 243.824,107.352 234.864,107.352 C227.92,107.352 223.048,105.168 223.048,101.92 C223.048,99.512 225.008,97.776 229.376,97.16 L229.376,96.992 C225.96,95.928 224.672,93.856 224.672,91.728 C224.672,89.88 226.688,87.584 230.608,86.52 C226.968,85.288 224.504,82.768 224.504,78.736 C224.504,73.36 229.488,70 235.816,70 Z M250.936,105.056 L250.6,104.384 C255.024,102.144 257.096,98.56 257.32,96.432 L257.096,96.32 C256.592,96.6 256.032,96.712 255.472,96.712 C253.512,96.712 251.664,95.2 251.664,92.68 C251.664,90.384 253.344,88.312 255.864,88.312 C258.888,88.312 260.848,90.608 260.848,93.912 C260.848,98.728 257.208,103.096 250.936,105.056 Z M24.304,152.152 L24.304,151.368 C29.232,151.256 30.8,150.304 30.8,148.176 L30.8,114.128 L29.4,114.128 C25.144,114.128 21.728,118.272 17.752,126.056 L16.912,125.944 L17.248,113.12 L52.472,113.12 L52.752,125.944 L51.912,126.056 C47.992,118.44 44.632,114.128 40.32,114.128 L38.976,114.128 L38.976,148.176 C38.976,150.304 40.488,151.256 45.472,151.368 L45.472,152.152 L24.304,152.152 Z M55.832,152.152 L55.832,151.48 C58.968,151.424 59.696,150.976 59.696,149.408 L59.696,115.976 C59.696,114.184 59.136,113.288 55.496,113.232 L55.496,112.56 L67.144,112 L67.144,131.768 C69.552,128.184 73.136,126 76.776,126 C81.48,126 83.832,128.8 83.832,134.064 L83.832,149.408 C83.832,150.976 84.448,151.424 87.696,151.48 L87.696,152.152 L73.36,152.152 L73.36,151.48 C75.544,151.424 76.384,150.976 76.384,149.408 L76.384,134.624 C76.384,131.264 75.152,129.304 72.296,129.304 C70.224,129.304 68.544,130.76 67.144,133 L67.144,149.408 C67.144,150.976 67.928,151.424 70.112,151.48 L70.112,152.152 L55.832,152.152 Z M96.824,121.856 C94.192,121.856 92.4,120.288 92.4,117.544 C92.4,114.856 94.192,113.008 96.824,113.008 C99.456,113.008 101.192,114.744 101.192,117.376 C101.192,120.12 99.456,121.856 96.824,121.856 Z M89.208,152.152 L89.208,151.48 C92.4,151.424 93.24,150.976 93.24,149.408 L93.24,130.144 C93.24,128.464 92.4,127.4 89.208,127.344 L89.208,126.672 L100.688,126.168 L100.688,149.408 C100.688,150.976 101.304,151.424 104.608,151.48 L104.608,152.152 L89.208,152.152 Z M106.456,152.152 L106.456,151.48 C109.704,151.424 110.376,150.976 110.376,149.408 L110.376,130.144 C110.376,128.464 109.704,127.4 106.456,127.344 L106.456,126.672 L117.712,126.168 L117.712,131.768 C120.12,128.184 123.76,126 127.4,126 C132.104,126 134.4,128.8 134.4,134.064 L134.4,149.408 C134.4,150.976 135.016,151.424 138.264,151.48 L138.264,152.152 L123.872,152.152 L123.872,151.48 C126.112,151.424 126.952,150.976 126.952,149.408 L126.952,134.568 C126.952,131.208 125.832,129.304 122.976,129.304 C120.904,129.304 119.28,130.76 117.824,133 L117.824,149.408 C117.824,150.976 118.608,151.424 120.792,151.48 L120.792,152.152 L106.456,152.152 Z M150.472,141.68 L150.472,149.408 C150.472,150.976 151.256,151.424 153.272,151.48 L153.272,152.152 L139.16,152.152 L139.16,151.48 C142.296,151.424 143.024,150.976 143.024,149.408 L143.024,115.976 C143.024,114.184 142.464,113.288 138.824,113.232 L138.824,112.56 L150.472,112 L150.472,140.336 L158.032,132.272 C160.608,129.472 159.824,127.848 156.24,126.952 L156.24,126.28 L168.672,126.28 L168.672,126.952 C165.032,127.736 162.568,129.416 158.984,133 L157.08,134.792 L165.872,147.784 C168,150.864 168.616,151.2 171.192,151.48 L171.192,152.152 L156.52,152.152 L156.52,151.48 C159.152,151.312 159.432,150.528 158.088,148.456 L152.432,139.664 L150.472,141.68 Z M178.584,121.856 C175.952,121.856 174.16,120.288 174.16,117.544 C174.16,114.856 175.952,113.008 178.584,113.008 C181.216,113.008 182.952,114.744 182.952,117.376 C182.952,120.12 181.216,121.856 178.584,121.856 Z M170.968,152.152 L170.968,151.48 C174.16,151.424 175,150.976 175,149.408 L175,130.144 C175,128.464 174.16,127.4 170.968,127.344 L170.968,126.672 L182.448,126.168 L182.448,149.408 C182.448,150.976 183.064,151.424 186.368,151.48 L186.368,152.152 L170.968,152.152 Z M188.216,152.152 L188.216,151.48 C191.464,151.424 192.136,150.976 192.136,149.408 L192.136,130.144 C192.136,128.464 191.464,127.4 188.216,127.344 L188.216,126.672 L199.472,126.168 L199.472,131.768 C201.88,128.184 205.52,126 209.16,126 C213.864,126 216.16,128.8 216.16,134.064 L216.16,149.408 C216.16,150.976 216.776,151.424 220.024,151.48 L220.024,152.152 L205.632,152.152 L205.632,151.48 C207.872,151.424 208.712,150.976 208.712,149.408 L208.712,134.568 C208.712,131.208 207.592,129.304 204.736,129.304 C202.664,129.304 201.04,130.76 199.584,133 L199.584,149.408 C199.584,150.976 200.368,151.424 202.552,151.48 L202.552,152.152 L188.216,152.152 Z M234.304,162.4 C239.064,162.4 242.536,160.216 242.536,156.688 C242.536,154.616 240.968,153.216 235.984,153.216 L228.872,153.216 C226.912,154.224 225.96,155.456 225.96,157.192 C225.96,160.608 228.648,162.4 234.304,162.4 Z M234.024,142.296 C236.936,142.296 237.832,139.944 237.832,134.624 C237.832,129.808 236.6,126.952 233.52,126.952 C230.552,126.952 229.712,129.248 229.712,134.624 C229.712,139.944 231,142.296 234.024,142.296 Z M233.8,126 C235.592,126 237.44,126.28 239.008,126.896 C240.24,124.096 242.312,121.744 245.168,121.744 C247.408,121.744 248.584,123.088 248.584,124.88 C248.584,126.336 247.632,127.624 245.896,127.624 C244.496,127.624 243.04,126.392 243.04,124.432 C241.864,124.824 240.688,126 239.96,127.288 C242.984,128.632 245.056,131.04 245.056,134.512 C245.056,139.944 240.016,143.304 233.8,143.304 C232.512,143.304 231.336,143.192 230.16,142.912 C227.92,143.64 227.024,144.368 227.024,145.544 C227.024,146.664 228.2,147.336 232.008,147.336 L237.608,147.336 C243.992,147.336 247.296,149.464 247.296,154.112 C247.296,158.984 241.808,163.352 232.848,163.352 C225.904,163.352 221.032,161.168 221.032,157.92 C221.032,155.512 222.992,153.776 227.36,153.16 L227.36,152.992 C223.944,151.928 222.656,149.856 222.656,147.728 C222.656,145.88 224.672,143.584 228.592,142.52 C224.952,141.288 222.488,138.768 222.488,134.736 C222.488,129.36 227.472,126 233.8,126 Z" id="Building,-Designing,"></path>
        </g>
    </g>
</svg>